<?xml version="1.0" encoding="UTF-8" standalone="no"?>
<svg
   xmlns:dc="http://purl.org/dc/elements/1.1/"
   xmlns:cc="http://creativecommons.org/ns#"
   xmlns:rdf="http://www.w3.org/1999/02/22-rdf-syntax-ns#"
   xmlns:svg="http://www.w3.org/2000/svg"
   xmlns="http://www.w3.org/2000/svg"
   xmlns:sodipodi="http://sodipodi.sourceforge.net/DTD/sodipodi-0.dtd"
   xmlns:inkscape="http://www.inkscape.org/namespaces/inkscape"
   width="508.66714mm"
   height="47.085613mm"
   viewBox="0 0 508.66715 47.085614"
   version="1.1"
   id="svg8"
   inkscape:version="1.0.2 (e86c870879, 2021-01-15, custom)"
   sodipodi:docname="Pictorius_Logo_Header.svg">
  <defs
     id="defs2" />
  <sodipodi:namedview
     id="base"
     pagecolor="#ffffff"
     bordercolor="#666666"
     borderopacity="1.0"
     inkscape:pageopacity="0.0"
     inkscape:pageshadow="2"
     inkscape:zoom="0.5"
     inkscape:cx="1084.7898"
     inkscape:cy="315.36353"
     inkscape:document-units="mm"
     inkscape:current-layer="layer1"
     inkscape:document-rotation="0"
     showgrid="false"
     inkscape:window-width="1920"
     inkscape:window-height="1013"
     inkscape:window-x="1341"
     inkscape:window-y="416"
     inkscape:window-maximized="1"
     fit-margin-top="0"
     fit-margin-left="0"
     fit-margin-right="0"
     fit-margin-bottom="0"
     lock-margins="true" />
  <metadata
     id="metadata5">
    <rdf:RDF>
      <cc:Work
         rdf:about="">
        <dc:format>image/svg+xml</dc:format>
        <dc:type
           rdf:resource="http://purl.org/dc/dcmitype/StillImage" />
        <dc:title></dc:title>
      </cc:Work>
    </rdf:RDF>
  </metadata>
  <g
     inkscape:label="Ebene 1"
     inkscape:groupmode="layer"
     id="layer1"
     transform="translate(-2.0214665,-2.3174632)">
    <rect
       style="fill:#ffffff;stroke-width:0.000000"
       id="logoBackgroundRectangle"
       width="60.644226"
       height="33.111469"
       x="2.0214665"
       y="2.3598845" />
    <g
       id="g80"
       transform="matrix(0.240149,0,0,0.240149,9.1760978,-4.9396504)">
      <path
         style="fill:#a0a0a0;stroke-width:0.0000000"
         d="m 7.7784084,142.8572 c -2.7098235,-1.62998 -4.4095813,-3.06702 -6.4981361,-5.4938 -1.69386248,-1.96816 -2.7697895,-3.52368 -3.7835077,-5.46999 -0.2876362,-0.55225 -0.5381054,-1.02983 -0.5565982,-1.06128 -0.018493,-0.0315 -0.3474556,0.0591 -0.7310285,0.20132 -1.137527,0.42165 -1.3704687,0.48134 -1.5299553,0.39209 -0.2764958,-0.15473 -1.4268856,-2.65533 -2.0189368,-4.38856 -0.3324503,-0.97324 -0.7634769,-2.6544 -1.0745144,-4.191 -0.5689325,-2.81065 -0.7288312,-4.60568 -0.6536096,-7.33745 l 0.055167,-2.00345 -0.5741112,-0.12856 c -0.3157612,-0.0707 -0.7174076,-0.15455 -0.8925466,-0.18632 -0.175139,-0.0318 -0.339313,-0.0915 -0.36483,-0.13282 -0.06438,-0.10416 0.0069,-0.0972 0.9067786,0.0884 1.1997402,0.24744 1.1128942,0.16416 1.0561848,1.01286 -0.1299657,1.94505 -0.1404022,2.69594 -0.054845,3.94603 0.2401627,3.50907 1.1950733,7.73784 2.4049617,10.65022 0.4260217,1.0255 1.2235014,2.60011 1.3168559,2.60011 0.042307,0 0.5023557,-0.1524 1.0223296,-0.33866 0.5199739,-0.18627 1.0142105,-0.33867 1.0983034,-0.33867 0.1069883,0 0.2432223,0.1902 0.4537253,0.63346 0.7279405,1.53284 1.87802704,3.3363 3.0356244,4.76019 1.7924737,2.20481 3.5425854,3.94682 5.207745,5.18363 0.8979586,0.66697 2.9192338,1.92878 3.2125454,2.00549 0.1354633,0.0354 0.3052961,-0.1344 0.8617187,-0.86166 0.3811522,-0.49817 0.6930042,-0.97687 0.6930042,-1.06378 0,-0.10879 -0.336296,-0.37959 -1.0794999,-0.86927 -3.4425627,-2.26822 -6.0174538,-4.67265 -8.0792827,-7.54439 -2.5244493,-3.5161 -4.1608872,-7.83321 -4.6834643,-12.35554 -0.5334676,-4.61657 -0.2374754,-9.50277 0.8065513,-13.31445 0.4575633,-1.67053 0.826732,-2.63408 1.6482586,-4.30201 0.98652751,-2.00294 2.0590594,-3.614958 3.6052302,-5.418671 0.7102263,-0.828528 3.0921892,-3.196997 3.7393736,-3.71819 C 6.8986608,93.35281 6.8648635,93.239826 6.0315657,92.821808 4.4413429,92.024084 2.6892662,90.564242 1.7536233,89.2574 1.4921108,88.892137 1.2194842,88.598315 1.1420836,88.598315 c -0.076816,0 -0.68926879,0.511075 -1.36100734,1.135722 -3.18515106,2.961857 -5.14206486,5.67779 -7.32583936,10.167279 -1.794917,3.690064 -2.6237819,6.228944 -3.2063519,9.821334 l -0.123572,0.762 0.03239,-0.71967 c 0.03788,-0.84166 0.365069,-2.4996 0.776959,-3.937 0.9435,-3.29258 3.0562841,-7.763075 5.1565651,-10.910909 0.938589,-1.406727 1.9676096,-2.659359 3.3394984,-4.065186 1.64219891,-1.682826 2.50346802,-2.440416 2.7361811,-2.406801 0.1124534,0.01624 0.3734308,0.284135 0.6854038,0.703565 1.0220333,1.374062 2.5624849,2.668707 4.136925,3.476805 0.7661834,0.393252 0.9101667,0.498612 0.9101667,0.666019 0,0.148379 -0.3259608,0.496782 -1.2839522,1.372354 -2.9803361,2.723925 -4.99792918,5.309386 -6.46495865,8.284573 -1.68711795,3.42153 -2.47650145,6.66693 -2.66709775,10.96525 -0.2849181,6.42547 0.5942351,11.14493 2.93811575,15.77235 1.2380798,2.44429 2.53605115,4.19353 4.76102415,6.41629 1.8015678,1.79978 2.8351124,2.65122 4.8970353,4.03422 1.1806043,0.79186 1.4605003,1.01676 1.4605003,1.17351 0,0.29466 -1.4289925,2.1523 -1.6556654,2.1523 -0.054991,0 -0.5526879,-0.27231 -1.1059922,-0.60512 z M -11.026874,111.20432 c 0,-0.20955 0.01651,-0.29528 0.03669,-0.1905 0.02018,0.10477 0.02018,0.27622 0,0.381 -0.02018,0.10477 -0.03669,0.0191 -0.03669,-0.1905 z M 14.257689,83.103755 c -0.922132,-0.295031 -1.687107,-0.990671 -2.139588,-1.94566 -0.24535,-0.517825 -0.265702,-0.628876 -0.265702,-1.44978 0,-1.06548 0.144276,-1.552817 0.6719,-2.269544 0.695948,-0.945377 1.647559,-1.399453 2.926433,-1.396391 0.945466,0.0023 1.39387,0.127642 2.076163,0.580523 1.766549,1.172569 2.097459,3.870996 0.668645,5.452522 -0.430106,0.476076 -0.951875,0.825077 -1.531828,1.02461 -0.621348,0.213775 -1.744062,0.21551 -2.406023,0.0037 z m 2.739716,-0.291258 c 0.679133,-0.332994 1.281667,-0.9471 1.610608,-1.641543 0.256842,-0.54223 0.271719,-0.626951 0.271719,-1.547306 0,-0.877382 -0.02227,-1.021182 -0.225248,-1.454162 -0.729644,-1.55647 -2.455443,-2.335132 -4.179959,-1.885952 -0.939325,0.244663 -1.806495,0.98018 -2.223524,1.885952 -0.172624,0.374934 -0.228861,0.649866 -0.255978,1.25143 -0.05679,1.259748 0.221425,1.967921 1.097302,2.793123 0.791856,0.746043 1.197711,0.886177 2.485407,0.858163 0.827516,-0.018 0.98577,-0.04695 1.419673,-0.259705 z M -0.96482521,72.396427 c -0.0694749,-0.08371 -0.0896747,-1.698656 -0.0738666,-5.9055 l 0.021758,-5.790279 0.21674119,-0.02524 c 0.21188426,-0.02467 8.64678341,2.96134 8.86784471,3.139277 0.060455,0.04866 0.098555,0.168011 0.084667,0.265219 -0.01944,0.136055 -0.3733402,0.352158 -1.5373341,0.938742 -1.7129819,0.863242 -2.4598393,1.389247 -3.8419913,2.705879 -1.1160633,1.063158 -1.7224205,1.840008 -2.51824105,3.226314 -0.62642411,1.091221 -0.94352109,1.560807 -1.05396198,1.560807 -0.0384945,0 -0.11302153,-0.05185 -0.16561562,-0.115221 z m 0.83752858,-1.091279 C 0.82556743,69.634259 1.3807039,68.877111 2.379376,67.886312 c 1.4213628,-1.410159 2.5153738,-2.196836 4.2017001,-3.021341 0.7795395,-0.381144 1.4177145,-0.735949 1.4181667,-0.788456 4.529e-4,-0.05251 -0.046802,-0.132046 -0.1050104,-0.176754 -0.1653456,-0.126997 -8.42351873,-3.072113 -8.61427612,-3.072113 -0.16839776,0 -0.16989043,0.0502 -0.16989043,5.715 0,4.62368 0.0209533,5.715 0.10972545,5.715 0.0603496,0 0.35415982,-0.428625 0.65291207,-0.9525 z m 52.12518263,0.762 c -0.06458,-0.104775 -0.394541,-0.66675 -0.733248,-1.248833 -0.866246,-1.488681 -1.286187,-2.02881 -2.473327,-3.181203 -1.41693,-1.375456 -2.70099,-2.305625 -3.893075,-2.820131 -0.200477,-0.08653 -0.623812,-0.280339 -0.940745,-0.430693 -0.547772,-0.259867 -0.57496,-0.286554 -0.550333,-0.540173 l 0.02591,-0.2668 4.275667,-1.542314 c 2.351616,-0.848273 4.372821,-1.543598 4.491566,-1.545167 0.118745,-0.0016 0.26162,0.04287 0.3175,0.09875 0.07699,0.07699 0.1016,1.46978 0.1016,5.750409 0,3.106845 -0.02313,5.709075 -0.05139,5.782733 -0.07672,0.199939 -0.43386,0.164498 -0.570121,-0.05657 z m 0.452179,-5.693833 v -5.715 l -0.232833,3.72e-4 c -0.128059,2.03e-4 -2.118784,0.679888 -4.423834,1.510403 -4.953106,1.784616 -4.757556,1.64748 -3.291175,2.308053 1.759525,0.79263 2.868446,1.555395 4.425907,3.044338 1.027276,0.982082 1.605305,1.746352 2.512089,3.321477 0.484511,0.841617 0.761067,1.240358 0.861679,1.242378 0.139678,0.0028 0.148167,-0.324479 0.148167,-5.712025 z"
         id="path84" />
      <path
         style="fill:#050505;stroke-width:0.0000000"
         d="m 7.6240788,142.59448 c -2.7014643,-1.62718 -4.7535752,-3.4791 -7.2283598,-6.52318 -1.15759736,-1.42389 -2.3076839,-3.22735 -3.0356244,-4.76019 -0.210503,-0.44326 -0.346737,-0.63346 -0.4537253,-0.63346 -0.084093,0 -0.5783295,0.1524 -1.0983034,0.33867 -0.5199739,0.18626 -0.9800222,0.33866 -1.0223296,0.33866 -0.093355,0 -0.8908342,-1.57461 -1.3168559,-2.60011 -0.4641858,-1.11736 -0.9362258,-2.55676 -1.2575152,-3.83455 -0.9769477,-3.8854 -1.3182265,-6.81351 -1.1475978,-9.84617 0.072607,-1.29047 0.069276,-1.62759 -0.016607,-1.68095 -0.1207043,-0.075 -0.6755686,-0.20127 -1.5255944,-0.34722 l -0.5715,-0.0981 0.0028,-0.5966 c 0.0029,-0.62652 0.04966,-1.02108 0.327278,-2.76195 0.555631,-3.48423 1.3779314,-5.99325 3.1751228,-9.687984 2.1837745,-4.489489 4.1406883,-7.205422 7.32583936,-10.167279 0.67173855,-0.624647 1.28419184,-1.135722 1.36100734,-1.135722 0.077401,0 0.3500272,0.293822 0.6115397,0.659085 0.9356429,1.306842 2.6877196,2.766684 4.2779424,3.564408 0.8332978,0.418018 0.8670951,0.531002 0.2963334,0.990651 -0.6471844,0.521193 -3.0291473,2.889662 -3.7393736,3.71819 -1.5461708,1.803713 -2.61870269,3.415731 -3.6052302,5.418671 -0.8215266,1.66793 -1.1906953,2.63148 -1.6482586,4.30201 -1.0440267,3.81168 -1.3400189,8.69788 -0.8065513,13.31445 0.5225771,4.52233 2.159015,8.83944 4.6834643,12.35554 2.0618289,2.87174 4.63672,5.27617 8.0792827,7.54439 0.7432037,0.48968 1.0794997,0.76048 1.0794997,0.86927 0,0.19341 -1.3356808,1.958 -1.4820838,1.958 -0.057704,0 -0.6267594,-0.31432 -1.2645695,-0.6985 z M 14.307732,82.981504 c -0.511726,-0.16766 -0.715024,-0.296032 -1.215407,-0.767465 -0.875877,-0.825202 -1.154088,-1.533375 -1.097302,-2.793123 0.02712,-0.601564 0.08335,-0.876496 0.255978,-1.25143 0.417029,-0.905772 1.284199,-1.641289 2.223524,-1.885952 1.724516,-0.44918 3.450315,0.329482 4.179959,1.885952 0.202974,0.43298 0.225248,0.57678 0.225248,1.454162 0,0.920355 -0.01488,1.005076 -0.271719,1.547306 -0.328941,0.694443 -0.931475,1.308549 -1.610608,1.641543 -0.433903,0.212753 -0.592157,0.241703 -1.419673,0.259705 -0.592696,0.01289 -1.054474,-0.02008 -1.27,-0.0907 z M -0.88993415,66.542648 c 0,-5.6648 0.00149,-5.715 0.16989043,-5.715 0.19075739,0 8.44893052,2.945116 8.61427612,3.072113 0.058208,0.04471 0.1054633,0.124248 0.1050104,0.176754 -4.234e-4,0.05251 -0.6386272,0.407312 -1.4181667,0.788456 -1.6863263,0.824505 -2.7803373,1.611182 -4.2017001,3.021341 -0.9986721,0.990799 -1.55380857,1.747947 -2.50667263,3.418836 -0.29875225,0.523875 -0.59256251,0.9525 -0.65291207,0.9525 -0.0887722,0 -0.10972545,-1.09132 -0.10972545,-5.715 z M 51.440219,70.842961 c -0.906784,-1.575125 -1.484813,-2.339395 -2.512089,-3.321476 -1.557461,-1.488943 -2.666382,-2.251708 -4.425907,-3.044338 -1.466381,-0.660574 -1.661931,-0.523437 3.291175,-2.308053 2.30505,-0.830515 4.295775,-1.510196 4.423834,-1.510403 l 0.232833,-3.76e-4 v 5.715 c 0,5.387546 -0.0085,5.71483 -0.148167,5.712025 -0.100612,-0.002 -0.377168,-0.400761 -0.861679,-1.242379 z"
         id="path82" />
    </g>
    <path
       style="fill:#191f51;fill-opacity:1;stroke-width:0.0000000"
       d="m 17.085348,29.610201 c -0.150463,-0.03942 -0.39042,-0.153352 -0.39042,-0.185375 0,-0.0096 -0.01162,-0.0175 -0.02589,-0.0175 -0.01427,0 -0.08721,-0.06432 -0.162183,-0.142927 -0.156351,-0.163939 -0.257688,-0.355651 -0.308116,-0.582894 -0.04845,-0.218324 -0.04418,-0.665084 0.0083,-0.872119 0.04299,-0.16959 0.151899,-0.414989 0.184147,-0.414989 0.01051,0 0.01907,-0.01404 0.01907,-0.03119 0,-0.04065 0.273808,-0.314454 0.314455,-0.314454 0.0172,0 0.03122,-0.0085 0.03122,-0.01906 0,-0.03324 0.247748,-0.141927 0.425161,-0.186506 0.150135,-0.03773 0.212165,-0.0418 0.508318,-0.03342 0.272823,0.0076 0.363546,0.01802 0.474554,0.05391 0.16064,0.05195 0.16366,0.06128 0.09403,0.290551 l -0.04322,0.142293 -0.0737,-0.01065 c -0.04054,-0.0057 -0.13774,-0.02906 -0.216019,-0.05155 -0.160247,-0.04605 -0.362341,-0.05413 -0.522564,-0.02089 -0.128278,0.0266 -0.345104,0.117774 -0.367999,0.154733 -0.0089,0.01443 -0.02402,0.02624 -0.03357,0.02624 -0.02396,0 -0.145819,0.125687 -0.190064,0.196046 -0.05985,0.09518 -0.117139,0.233323 -0.150423,0.362715 -0.04544,0.176717 -0.02776,0.528335 0.03477,0.691695 0.109259,0.285305 0.284016,0.461438 0.558833,0.563243 0.17793,0.06591 0.528966,0.06566 0.739971,-5.28e-4 0.211437,-0.06633 0.230836,-0.0576 0.273064,0.122945 0.04548,0.194364 0.04563,0.193465 -0.03808,0.228435 -0.237344,0.09917 -0.855128,0.126864 -1.143676,0.05127 z m 1.985168,0.0022 c -0.134955,-0.04316 -0.227258,-0.09779 -0.31183,-0.184583 -0.03357,-0.03443 -0.07701,-0.07801 -0.09657,-0.09684 -0.0196,-0.01884 -0.03559,-0.04595 -0.03559,-0.06023 0,-0.01429 -0.0078,-0.02598 -0.01758,-0.02598 -0.02887,0 -0.120004,-0.225041 -0.143518,-0.354471 -0.03012,-0.165728 -0.0269,-0.421873 0.0072,-0.583309 0.02791,-0.131605 0.139311,-0.383839 0.169549,-0.383839 0.0083,0 0.02426,-0.02057 0.0353,-0.04569 0.03544,-0.08071 0.263904,-0.234654 0.417412,-0.28128 0.12022,-0.03652 0.181351,-0.04199 0.400901,-0.03586 0.24122,0.0066 0.268467,0.01168 0.39576,0.07188 0.243872,0.115337 0.409872,0.316074 0.491666,0.594551 0.04275,0.145524 0.04395,0.558611 0.0025,0.719272 -0.08696,0.333923 -0.305969,0.568472 -0.622851,0.667097 -0.166994,0.05197 -0.528524,0.0516 -0.692099,-7.2e-4 z m 0.511234,-0.380012 c 0.04496,-0.01799 0.08174,-0.04024 0.08174,-0.04947 0,-0.0092 0.01638,-0.02195 0.03636,-0.02829 0.03881,-0.01232 0.166644,-0.207509 0.192931,-0.294617 0.04529,-0.150105 0.05487,-0.258072 0.03343,-0.376469 -0.08058,-0.444427 -0.410155,-0.657477 -0.721292,-0.466266 -0.08122,0.04991 -0.113355,0.08859 -0.179292,0.215758 -0.06884,0.132797 -0.08169,0.178146 -0.08972,0.317264 -0.01758,0.303091 0.09556,0.536774 0.320949,0.663045 0.106252,0.05953 0.208719,0.06553 0.324913,0.01905 z m 1.683905,0.380934 c -0.319322,-0.10531 -0.526358,-0.337999 -0.596914,-0.670884 -0.03414,-0.16111 -0.03761,-0.437051 -0.0075,-0.603826 0.02277,-0.126439 0.134484,-0.395138 0.164262,-0.395138 0.0095,0 0.01729,-0.01093 0.01729,-0.02426 0,-0.04622 0.226947,-0.243819 0.341953,-0.297732 0.10789,-0.05057 0.134364,-0.05416 0.400189,-0.05416 0.253344,0 0.295716,0.005 0.385185,0.04636 0.0553,0.02549 0.117606,0.06209 0.138475,0.08133 0.243805,0.224776 0.320142,0.415951 0.320142,0.801723 v 0.219387 H 21.7555 21.08226 l 0.01325,0.07625 c 0.0072,0.04193 0.04088,0.131839 0.07468,0.199784 0.04965,0.09988 0.08163,0.135674 0.166923,0.18693 0.05803,0.03487 0.149786,0.07435 0.203904,0.08775 0.127851,0.03164 0.374163,0.01233 0.530011,-0.04154 0.161178,-0.05573 0.191576,-0.0536 0.206811,0.01439 0.0068,0.03076 0.02075,0.08793 0.03079,0.12708 0.04106,0.16013 0.03223,0.176913 -0.118772,0.225732 -0.199385,0.06447 -0.753953,0.07697 -0.924164,0.02084 z m 0.689122,-1.314464 c -0.01888,-0.116316 -0.09984,-0.256055 -0.17857,-0.308179 -0.187307,-0.12402 -0.435231,-0.05398 -0.561099,0.158513 -0.03564,0.06018 -0.07096,0.1346 -0.07845,0.165352 l -0.01359,0.05592 h 0.421683 0.421682 z m 0.921265,1.323163 c -0.155593,-0.0438 -0.243991,-0.08867 -0.243991,-0.123819 0,-0.0183 0.0197,-0.101124 0.0438,-0.184031 0.0499,-0.171748 0.07508,-0.184274 0.220898,-0.109882 0.272747,0.139145 0.553232,0.10884 0.637567,-0.06889 0.06663,-0.140398 -0.04491,-0.274544 -0.303904,-0.365508 -0.125334,-0.04403 -0.293375,-0.133249 -0.293375,-0.155781 0,-0.01101 -0.0121,-0.01999 -0.02695,-0.01999 -0.03271,0 -0.115373,-0.0847 -0.115373,-0.118224 0,-0.01325 -0.0081,-0.02411 -0.01811,-0.02411 -0.03593,0 -0.08355,-0.166162 -0.08355,-0.291614 0,-0.249229 0.109379,-0.431898 0.320763,-0.535701 0.111334,-0.05467 0.129195,-0.05715 0.411212,-0.05715 0.266733,0 0.304994,0.0048 0.401568,0.04825 0.125429,0.0567 0.131577,0.08383 0.06421,0.283287 -0.04894,0.144896 -0.07409,0.154319 -0.221677,0.08301 -0.114652,-0.05539 -0.302314,-0.07313 -0.390809,-0.03694 -0.0938,0.03836 -0.120137,0.06976 -0.13188,0.157307 -0.0088,0.06615 -0.0015,0.08498 0.05619,0.141264 0.03655,0.03572 0.135829,0.09371 0.220658,0.128921 0.202311,0.08392 0.347395,0.157653 0.347395,0.176543 0,0.0083 0.01984,0.0242 0.04409,0.03523 0.02426,0.01104 0.05398,0.03838 0.06608,0.06074 0.0121,0.02237 0.02848,0.04557 0.03645,0.05154 0.04347,0.0327 0.07704,0.175045 0.07704,0.326681 0,0.229784 -0.02921,0.313049 -0.153787,0.438388 -0.146664,0.147559 -0.289673,0.190512 -0.626079,0.188034 -0.135808,-9.6e-4 -0.288101,-0.0134 -0.338427,-0.02758 z m 3.086447,-0.0087 c -0.413959,-0.136519 -0.624805,-0.466641 -0.625848,-0.979886 -2.02e-4,-0.09579 0.0094,-0.228466 0.02138,-0.294824 0.02277,-0.126437 0.134488,-0.395135 0.164266,-0.395135 0.0095,0 0.01729,-0.01093 0.01729,-0.02426 0,-0.04622 0.22694,-0.243819 0.341953,-0.297732 0.107885,-0.05057 0.134362,-0.05416 0.400183,-0.05416 0.253348,0 0.295715,0.0049 0.385191,0.04636 0.05529,0.0255 0.117601,0.06209 0.138469,0.08133 0.243804,0.224776 0.320148,0.415951 0.320148,0.801723 v 0.219386 h -0.673245 -0.673237 l 0.01302,0.07624 c 0.0071,0.04194 0.04304,0.135184 0.07971,0.207219 0.06127,0.120344 0.07797,0.136848 0.20563,0.203328 0.135016,0.07031 0.14505,0.07228 0.354633,0.07009 0.165102,-0.0018 0.243853,-0.01245 0.335782,-0.04574 0.159976,-0.05793 0.191474,-0.05603 0.206811,0.01243 0.0068,0.03076 0.02075,0.08793 0.03079,0.127078 0.04106,0.160131 0.03224,0.176913 -0.118773,0.225733 -0.199381,0.06446 -0.753948,0.07696 -0.92416,0.02083 z m 0.689122,-1.314464 c -0.01672,-0.10288 -0.09593,-0.251614 -0.155798,-0.29243 -0.07916,-0.05398 -0.214709,-0.09027 -0.284779,-0.07626 -0.119829,0.02396 -0.24002,0.112456 -0.303293,0.223305 -0.033,0.05784 -0.06629,0.130318 -0.07395,0.16107 l -0.01393,0.05592 h 0.421682 0.421683 z m 2.155953,1.304351 c -0.06459,-0.02714 -0.133211,-0.06123 -0.152495,-0.07576 -0.08368,-0.06303 -0.167225,-0.150394 -0.167225,-0.174852 0,-0.01458 -0.0089,-0.02651 -0.02003,-0.02651 -0.03424,0 -0.144406,-0.242474 -0.174372,-0.383839 -0.03708,-0.174823 -0.03641,-0.463383 0.0015,-0.642958 0.0329,-0.155975 0.139585,-0.392892 0.184733,-0.410217 0.01571,-0.0059 0.02853,-0.0221 0.02853,-0.03573 0,-0.02994 0.08535,-0.1132 0.116048,-0.1132 0.01207,0 0.0268,-0.01275 0.03281,-0.02832 0.0058,-0.01558 0.06414,-0.05405 0.129252,-0.08549 0.218291,-0.105397 0.704627,-0.08922 0.830421,0.02763 0.02214,0.02057 0.05628,0.04352 0.07585,0.051 0.03328,0.01272 0.03559,-0.01898 0.03559,-0.494093 l 9e-6,-0.507678 h 0.223907 0.223899 l -9.6e-4,1.418026 c -4.8e-4,0.95165 0.0059,1.420314 0.02007,1.424977 -0.0066,0.08978 -0.165515,0.06532 -0.252891,0.06456 h -0.172086 l 0.002,-0.0923 c 9.6e-4,-0.05076 -0.0035,-0.09765 -0.01005,-0.104217 -0.0065,-0.0064 -0.03559,0.01621 -0.06452,0.05058 -0.02891,0.03438 -0.104791,0.08814 -0.168579,0.119465 -0.104466,0.0513 -0.1402,0.05751 -0.359969,0.0626 -0.219838,0.0049 -0.255615,7.69e-4 -0.361425,-0.04369 z M 29.3653,29.223895 c 0.145569,-0.04043 0.322169,-0.277712 0.322169,-0.432868 0.02551,-0.154393 0.02359,-0.279394 -0.0049,-0.409575 -0.03118,-0.276471 -0.283226,-0.475335 -0.528049,-0.416603 -0.152155,0.0365 -0.30485,0.195994 -0.36067,0.376712 -0.107524,0.348125 2.02e-4,0.721716 0.244198,0.847288 0.114979,0.05916 0.205548,0.06885 0.327285,0.03505 z m -4.964313,-0.436648 v -0.823472 h -0.142326 -0.142326 v -0.193158 -0.193159 h 0.142326 0.142326 l 2.41e-4,-0.147413 c 2.4e-4,-0.157302 0.03214,-0.306328 0.09017,-0.421902 0.05644,-0.112333 0.237307,-0.274723 0.347981,-0.312435 0.113524,-0.03868 0.443062,-0.04511 0.565749,-0.01107 l 0.07901,0.02194 -0.01325,0.14255 c -0.02041,0.219327 -0.02694,0.225937 -0.207484,0.20902 -0.149161,-0.01399 -0.251013,0.0064 -0.30327,0.06095 -0.04716,0.04914 -0.09586,0.191448 -0.109632,0.320251 l -0.01475,0.138092 h 0.229937 0.229938 v 0.19316 0.193159 h -0.233823 -0.233823 v 0.823472 0.823471 h -0.213493 -0.213493 z m 3.070229,-0.630311 v -1.453783 h 0.223656 0.22366 v 1.453783 1.453782 h -0.22366 -0.223656 z m 25.026423,-2.511047 c -0.179401,-0.01753 -0.427263,-0.08763 -0.473545,-0.133897 -0.04428,-0.04429 -0.03977,-0.112048 0.02036,-0.309378 l 0.05206,-0.170809 0.07502,0.0098 c 0.04121,0.0052 0.139027,0.03496 0.217306,0.06566 0.195059,0.07649 0.404449,0.08069 0.547416,0.01099 0.05504,-0.02685 0.115309,-0.06403 0.133916,-0.08264 0.03227,-0.03227 0.09136,-0.1702 0.139921,-0.32657 0.03199,-0.103065 0.02853,-0.112804 -0.02325,-0.0654 -0.02517,0.02306 -0.08692,0.06354 -0.13724,0.08995 -0.08252,0.04334 -0.117337,0.04804 -0.355823,0.04804 -0.2431,0 -0.273503,-0.0045 -0.378592,-0.05358 -0.124762,-0.0585 -0.282213,-0.188742 -0.282213,-0.233443 0,-0.01547 -0.0086,-0.02814 -0.01998,-0.02814 -0.02776,0 -0.122851,-0.19253 -0.155656,-0.315155 -0.03131,-0.116984 -0.03717,-0.556808 -0.0086,-0.655862 0.04217,-0.188315 0.0437,-0.166199 0.101814,-0.27519 0.06542,-0.139781 0.246048,-0.317771 0.397764,-0.391932 0.116578,-0.05699 0.134177,-0.05964 0.396485,-0.05964 0.296105,0 0.355959,0.01629 0.467649,0.12736 l 0.05082,0.05054 0.0066,-0.07371 0.0066,-0.07371 h 0.26402 0.264021 l -0.0076,1.021712 c -0.0066,0.867528 -0.01288,1.040953 -0.0414,1.149185 -0.03795,0.143863 -0.12605,0.330015 -0.156232,0.330015 -0.01096,0 -0.01998,0.01213 -0.01998,0.02696 0,0.03272 -0.08473,0.115373 -0.118221,0.115373 -0.01325,0 -0.02411,0.009 -0.02411,0.01999 0,0.03027 -0.180793,0.115545 -0.316611,0.14932 -0.15531,0.03863 -0.424372,0.05338 -0.621708,0.0341 z m 0.456436,-1.374906 c 0.13557,-0.0685 0.193734,-0.189292 0.231466,-0.313274 0.0512,-0.182961 0.03323,-0.277283 -0.004,-0.40379 -0.01709,-0.106961 -0.142389,-0.236263 -0.249351,-0.278641 -0.08088,-0.03206 -0.09212,-0.03207 -0.175741,-1.23e-4 -0.164387,0.06279 -0.256893,0.186323 -0.298726,0.398942 -0.07406,0.376305 0.223491,0.734478 0.495812,0.596888 z m -25.441947,0.237476 c -0.0827,-0.163533 -0.10044,-0.348209 -0.101203,-1.053488 l -4.81e-4,-0.655726 h 0.294826 0.294822 l 4.8e-4,0.523565 c 2.25e-4,0.28796 0.0096,0.587197 0.02084,0.664971 0.02786,0.192883 0.09434,0.302495 0.210221,0.346754 0.08587,0.0328 0.09301,0.0325 0.178075,-0.007 0.242724,-0.113117 0.261437,-0.181331 0.261437,-0.952956 v -0.575207 h 0.295195 0.295196 l -9.6e-4,1.006465 -9.61e-4,1.006464 h -0.263366 -0.263377 v -0.09151 c 0,-0.103145 -0.02051,-0.115164 -0.06929,-0.04067 -0.01835,0.02796 -0.04683,0.05084 -0.06334,0.05084 -0.01652,0 -0.03002,0.0074 -0.03002,0.01656 0,0.03057 -0.140704,0.08405 -0.279386,0.106213 -0.374574,-0.01021 -0.589883,0.0076 -0.777669,-0.345165 z m -5.622648,0.345395 c -0.198271,-0.03063 -0.318951,-0.119931 -0.400145,-0.296091 -0.04486,-0.09732 -0.04697,-0.125442 -0.05295,-0.69614 l -0.0061,-0.59473 H 21.286321 21.14236 l 0.01293,-0.09434 c 0.007,-0.05189 0.01293,-0.157105 0.01293,-0.233826 v -0.139486 h 0.132159 0.132164 v -0.222876 -0.222874 l 0.07624,-0.01996 c 0.266718,-0.0698 0.413743,-0.103605 0.450707,-0.103605 0.04092,0 0.04236,0.0097 0.04236,0.284655 v 0.284657 h 0.233828 0.233824 v 0.233824 0.233825 h -0.233913 -0.233828 v 0.43674 c 0,0.358949 0.0059,0.451719 0.03367,0.520837 0.04385,0.109577 0.116405,0.14136 0.287343,0.125859 l 0.126327,-0.01145 -1.44e-4,0.10957 c -8.1e-5,0.06025 -0.0057,0.170742 -0.01302,0.245505 l -0.01288,0.135934 -0.07343,0.01063 c -0.15502,0.02246 -0.362245,0.02846 -0.460177,0.01333 z m 17.100161,0.005 c -0.09521,-0.01266 -0.254158,-0.06838 -0.254158,-0.08909 0,-0.01028 -0.0099,-0.0187 -0.0219,-0.0187 -0.03823,0 -0.174439,-0.14903 -0.221816,-0.242717 -0.0827,-0.163533 -0.100436,-0.348209 -0.101199,-1.053487 l -9.61e-4,-0.655726 h 0.294822 0.294821 l 4.8e-4,0.523563 c 2.27e-4,0.287962 0.0096,0.587198 0.02084,0.664972 0.02786,0.192884 0.09434,0.302496 0.210222,0.346755 0.08588,0.0328 0.09302,0.03251 0.178076,-0.007 0.242723,-0.113116 0.26144,-0.181331 0.26144,-0.952955 v -0.575208 h 0.295191 0.295196 l -0.0015,1.006464 -0.0015,1.006465 h -0.26331 -0.263376 v -0.09151 c 0,-0.103144 -0.02046,-0.115163 -0.0693,-0.04067 -0.03049,0.02689 -0.0413,0.02858 -0.09933,0.06808 -0.04367,0.0267 -0.138959,0.08418 -0.268535,0.105128 -0.122461,0.01979 -0.171571,0.02079 -0.284653,0.0056 z m -18.937704,-0.03721 c -0.126914,-0.03534 -0.307305,-0.128686 -0.321833,-0.166548 -0.0053,-0.01429 -0.02195,-0.02597 -0.0366,-0.02597 -0.02541,0 -0.152029,-0.143354 -0.152029,-0.172122 0,-0.0075 -0.01307,-0.02684 -0.02906,-0.04281 -0.07517,-0.07517 -0.120544,-0.258079 -0.129171,-0.52064 -0.005,-0.149362 9.6e-4,-0.302734 0.01445,-0.364717 0.07545,-0.351804 0.363503,-0.644603 0.726143,-0.738101 0.170088,-0.04385 0.581617,-0.04127 0.759539,0.0049 0.160481,0.04152 0.162921,0.04925 0.100587,0.318987 -0.04879,0.211128 -0.0617,0.222408 -0.195845,0.171156 -0.119686,-0.04572 -0.264241,-0.06108 -0.364998,-0.03878 -0.111852,0.02476 -0.312386,0.13759 -0.312386,0.175765 0,0.01386 -0.01239,0.03251 -0.02757,0.04145 -0.02719,0.01603 -0.07919,0.157652 -0.10457,0.284742 -0.01729,0.08644 0.03631,0.289974 0.102765,0.390377 0.129963,0.196385 0.404785,0.276303 0.671705,0.195332 0.0549,-0.01665 0.123379,-0.03037 0.152188,-0.0305 0.05039,-2.13e-4 0.05369,0.0072 0.08673,0.198022 0.01888,0.109033 0.03419,0.212583 0.03405,0.230111 -2.11e-4,0.0207 -0.04131,0.04528 -0.117236,0.07013 -0.159517,0.05219 -0.695515,0.06431 -0.856928,0.01936 z m 3.210428,-0.007 c -0.16323,-0.05267 -0.232747,-0.0937 -0.35788,-0.211236 -0.21698,-0.203792 -0.292766,-0.407638 -0.292766,-0.787454 0,-0.262768 0.03165,-0.418347 0.116885,-0.574992 0.06679,-0.122706 0.201596,-0.278977 0.240663,-0.278977 0.01581,0 0.02877,-0.0089 0.02877,-0.01992 0,-0.02259 0.127979,-0.09151 0.252179,-0.135769 0.139067,-0.04957 0.390565,-0.06978 0.581459,-0.04672 0.421826,0.05096 0.73171,0.328408 0.815138,0.729834 0.03751,0.180435 0.01412,0.617177 -0.04054,0.758102 -0.05365,0.138273 -0.212898,0.361897 -0.267969,0.376298 -0.02142,0.0054 -0.039,0.01789 -0.039,0.0273 0,0.02872 -0.177255,0.12296 -0.307529,0.163506 -0.167458,0.05212 -0.567973,0.05213 -0.729435,4.1e-5 z m 0.500172,-0.478054 c 0.171491,-0.07985 0.272464,-0.276824 0.272464,-0.531501 0,-0.16888 -0.05088,-0.317567 -0.145411,-0.424968 -0.194223,-0.220644 -0.433214,-0.173462 -0.581966,0.114892 -0.04948,0.09593 -0.05542,0.12923 -0.05542,0.310774 0,0.180463 0.006,0.215141 0.05423,0.308388 0.06711,0.130017 0.11849,0.182447 0.227143,0.231781 0.106587,0.0484 0.104757,0.04847 0.228967,-0.0093 z m 6.052898,0.485136 c -0.05822,-0.01568 -0.138282,-0.04206 -0.177907,-0.05863 -0.0883,-0.03689 -0.09105,-0.07024 -0.02671,-0.321921 0.05135,-0.200769 0.05508,-0.20314 0.211184,-0.134092 0.34516,0.152682 0.638084,0.11923 0.638084,-0.07287 0,-0.05186 -0.10713,-0.13208 -0.26074,-0.195269 -0.08585,-0.03531 -0.195562,-0.08356 -0.243813,-0.1072 -0.09792,-0.04799 -0.247756,-0.169042 -0.247756,-0.200167 0,-0.0111 -0.01349,-0.03368 -0.02997,-0.05016 -0.089,-0.089 -0.09066,-0.400815 -0.003,-0.570042 0.06708,-0.129528 0.161788,-0.217192 0.309226,-0.286244 0.115409,-0.05405 0.132907,-0.05629 0.435399,-0.0557 0.280081,5.76e-4 0.328164,0.0056 0.432066,0.04721 0.07813,0.03115 0.116915,0.05804 0.116915,0.08112 0,0.02863 -0.05021,0.22911 -0.09372,0.374282 -0.0144,0.04816 -0.06062,0.04491 -0.2461,-0.01735 -0.18647,-0.0626 -0.306776,-0.05837 -0.383234,0.01346 -0.09883,0.09284 -0.03569,0.185618 0.179664,0.26389 0.330777,0.12023 0.529238,0.271557 0.580494,0.442635 0.03958,0.132054 0.02978,0.405843 -0.01834,0.512243 -0.04083,0.09029 -0.152235,0.223659 -0.186837,0.223659 -0.0098,0 -0.03126,0.01348 -0.04774,0.02997 -0.01647,0.01647 -0.08998,0.04851 -0.163349,0.07116 -0.163292,0.05043 -0.602602,0.05612 -0.77377,0.01002 z m 5.663026,0.0025 c -0.167412,-0.04807 -0.287976,-0.118176 -0.40577,-0.235957 -0.202321,-0.2023 -0.27025,-0.393851 -0.27025,-0.762071 0,-0.262881 0.02867,-0.397878 0.124657,-0.587329 0.0547,-0.107951 0.243214,-0.317472 0.285633,-0.317472 0.01403,0 0.02555,-0.0078 0.02555,-0.01755 0,-0.0097 0.05718,-0.04397 0.127076,-0.07624 0.122214,-0.05644 0.138765,-0.0587 0.432072,-0.0587 0.332722,0 0.417235,0.02134 0.549696,0.138801 0.25682,0.227731 0.316315,0.372524 0.325201,0.791416 l 0.0057,0.279574 H 36.0292 c -0.423655,0 -0.64882,0.007 -0.64882,0.02055 0,0.0113 0.01979,0.06265 0.04395,0.114095 0.113322,0.241082 0.442456,0.329248 0.853129,0.228532 0.0975,-0.02391 0.190295,-0.03846 0.206239,-0.03235 0.01763,0.0066 0.04221,0.07777 0.06265,0.180715 0.05151,0.259565 0.056,0.247714 -0.113778,0.30142 -0.125324,0.03965 -0.200731,0.04762 -0.503233,0.05328 -0.254961,0.005 -0.382836,-0.0011 -0.451124,-0.02071 z M 36.0815,23.485627 c -0.02498,-0.117977 -0.0847,-0.190549 -0.196371,-0.238598 -0.09341,-0.04018 -0.114393,-0.04247 -0.187926,-0.02048 -0.115737,0.03461 -0.177498,0.08359 -0.23038,0.18265 -0.07809,0.146312 -0.08588,0.142506 0.291546,0.142506 h 0.337107 z m 5.974171,1.336175 c -0.05822,-0.01568 -0.138283,-0.04207 -0.177912,-0.05863 -0.08829,-0.0369 -0.09105,-0.07024 -0.02671,-0.32192 0.05134,-0.20077 0.05508,-0.203141 0.211177,-0.134091 0.345166,0.15268 0.638086,0.119229 0.638086,-0.07287 0,-0.05186 -0.10713,-0.132081 -0.260739,-0.19527 -0.08585,-0.03531 -0.195559,-0.08356 -0.243815,-0.1072 -0.09792,-0.04797 -0.247751,-0.16904 -0.247751,-0.200165 0,-0.01111 -0.01349,-0.03368 -0.02997,-0.05016 -0.08859,-0.0886 -0.0906,-0.399971 -0.004,-0.570043 0.06642,-0.129984 0.159137,-0.215898 0.308154,-0.285543 0.117428,-0.05488 0.133791,-0.05699 0.437153,-0.05639 0.28008,5.77e-4 0.328162,0.0056 0.432066,0.0472 0.07813,0.03115 0.116915,0.05804 0.116915,0.08112 0,0.02862 -0.05021,0.229111 -0.09372,0.374284 -0.0144,0.04816 -0.06063,0.04491 -0.246101,-0.01736 -0.186471,-0.06259 -0.306776,-0.05836 -0.383239,0.01346 -0.09883,0.09284 -0.03569,0.185621 0.17967,0.263892 0.330776,0.120227 0.529235,0.271556 0.580492,0.442634 0.03958,0.132054 0.02978,0.405844 -0.01834,0.512241 -0.04082,0.09029 -0.152235,0.22366 -0.186834,0.22366 -0.0098,0 -0.03127,0.01348 -0.04774,0.02997 -0.01647,0.01648 -0.08998,0.0485 -0.16335,0.07116 -0.163293,0.05044 -0.602601,0.05612 -0.773775,0.01001 z m 4.060551,-0.007 c -0.163231,-0.05267 -0.232747,-0.09369 -0.357881,-0.211235 -0.216975,-0.203792 -0.292761,-0.407637 -0.292761,-0.787453 0,-0.262768 0.0316,-0.418348 0.116881,-0.574993 0.06678,-0.122705 0.201596,-0.278977 0.240667,-0.278977 0.0158,0 0.02877,-0.0089 0.02877,-0.01993 0,-0.0226 0.127975,-0.0915 0.25218,-0.135768 0.139066,-0.04957 0.390564,-0.06978 0.581458,-0.04672 0.421826,0.05095 0.73171,0.328409 0.815132,0.729834 0.03751,0.180436 0.01412,0.617177 -0.04054,0.758102 -0.05366,0.138274 -0.212901,0.361897 -0.267972,0.376298 -0.02142,0.0054 -0.039,0.01789 -0.039,0.0273 0,0.02872 -0.177254,0.122959 -0.307531,0.163506 -0.167455,0.05212 -0.567965,0.05213 -0.729432,4e-5 z m 0.500172,-0.478052 c 0.17149,-0.07985 0.272467,-0.276826 0.272467,-0.531501 0,-0.168879 -0.05089,-0.317567 -0.145414,-0.424967 -0.194218,-0.220646 -0.433215,-0.173463 -0.581964,0.114891 -0.04948,0.09593 -0.05542,0.129228 -0.05542,0.310774 0,0.180462 0.0059,0.215141 0.05423,0.308386 0.06712,0.130019 0.118494,0.182449 0.227148,0.231781 0.106587,0.0484 0.104753,0.04848 0.228963,-0.0093 z m 3.826866,0.487556 c -0.167403,-0.04812 -0.287974,-0.118232 -0.405767,-0.236015 -0.20232,-0.202299 -0.270249,-0.393849 -0.270249,-0.762069 0,-0.262882 0.02867,-0.397878 0.124657,-0.58733 0.0547,-0.10795 0.243213,-0.317471 0.285633,-0.317471 0.01403,0 0.02555,-0.0078 0.02555,-0.01756 0,-0.0096 0.05718,-0.04397 0.127085,-0.07624 0.122205,-0.05644 0.138756,-0.0587 0.432065,-0.0587 0.332722,0 0.417235,0.02134 0.549701,0.138799 0.256817,0.227733 0.316315,0.372524 0.325191,0.791418 l 0.0056,0.279572 h -0.648815 c -0.423662,0 -0.648826,0.007 -0.648826,0.02055 0,0.01131 0.01979,0.06265 0.044,0.114097 0.113321,0.24108 0.442451,0.329247 0.853124,0.228531 0.09748,-0.02391 0.190294,-0.03846 0.206239,-0.03234 0.01758,0.0066 0.04217,0.07777 0.06263,0.180715 0.05149,0.259565 0.056,0.247714 -0.113773,0.30142 -0.125329,0.03965 -0.200736,0.04762 -0.503236,0.05328 -0.254962,0.0049 -0.382837,-0.0011 -0.451116,-0.02072 z m 0.603043,-1.338598 c -0.02497,-0.117978 -0.08464,-0.190551 -0.196364,-0.238598 -0.09338,-0.04019 -0.114397,-0.04247 -0.187931,-0.02047 -0.115743,0.03461 -0.177499,0.08359 -0.23038,0.18265 -0.07809,0.146315 -0.08587,0.142506 0.29155,0.142506 h 0.337103 z m -18.334359,1.332224 -0.07624,-0.0079 v -1.370288 -1.369978 l 0.09657,-0.0165 c 0.05312,-0.009 0.32532,-0.0165 0.604892,-0.0165 0.478569,0 0.516844,0.0029 0.65405,0.04776 0.08015,0.02627 0.164412,0.06515 0.18723,0.08642 0.02281,0.02126 0.04751,0.03866 0.0549,0.03866 0.03261,0 0.174693,0.165725 0.211365,0.246545 0.05257,0.115853 0.05739,0.423943 0.0085,0.546017 -0.01801,0.04496 -0.04087,0.08176 -0.05083,0.08176 -0.0099,0 -0.0181,0.01256 -0.0181,0.02791 0,0.03389 -0.171702,0.19567 -0.207959,0.195941 -0.01422,1.02e-4 0.01302,0.0235 0.06055,0.05198 0.04756,0.02848 0.08642,0.06042 0.08642,0.07097 0,0.01054 0.01292,0.01918 0.02877,0.01918 0.0341,0 0.15553,0.163325 0.196515,0.264324 0.01859,0.04583 0.02886,0.147179 0.02886,0.284657 0,0.188181 -0.0062,0.227039 -0.05357,0.327762 -0.05283,0.112675 -0.187473,0.282216 -0.224126,0.282216 -0.01033,0 -0.03842,0.01828 -0.06242,0.04063 -0.05936,0.05531 -0.238444,0.120585 -0.42235,0.153951 -0.142727,0.0259 -0.89845,0.03568 -1.103044,0.01427 z m 0.918014,-0.502875 c 0.236071,-0.06284 0.364104,-0.281025 0.275032,-0.468727 -0.06541,-0.137831 -0.301713,-0.23234 -0.583067,-0.233189 l -0.116909,-3.61e-4 v 0.365986 0.365987 l 0.157576,-2.38e-4 c 0.08667,-1.44e-4 0.206984,-0.01338 0.267368,-0.02946 z m -0.234933,-1.183312 c 0.328855,-0.04596 0.440755,-0.117982 0.471854,-0.300342 0.02785,-0.148502 -0.101991,-0.285098 -0.295729,-0.311084 -0.142635,-0.03309 -0.238214,-0.0054 -0.366136,-0.0054 v 0.315156 0.315156 h 0.09151 c 0.03141,0.0052 0.07978,-0.0071 0.09851,-0.01331 z M 16.30861,23.441068 v -1.371206 l 0.09657,-0.0165 c 0.05312,-0.009 0.320746,-0.01649 0.594728,-0.01649 0.459425,0 0.509418,0.0037 0.643104,0.04559 0.154907,0.04871 0.393859,0.20607 0.393859,0.259359 0,0.0168 0.0096,0.03055 0.02142,0.03055 0.01182,0 0.0461,0.05261 0.07624,0.116912 0.0517,0.110319 0.05477,0.133539 0.0543,0.411736 -4.8e-4,0.276256 -0.004,0.302185 -0.05479,0.411735 -0.02988,0.0643 -0.06396,0.116912 -0.07577,0.116912 -0.01182,0 -0.02142,0.01201 -0.02142,0.0267 0,0.03282 -0.104954,0.135967 -0.13836,0.135967 -0.01339,0 -0.0243,0.009 -0.0243,0.01999 0,0.03283 -0.196414,0.122232 -0.361021,0.164333 -0.109546,0.02801 -0.223069,0.03933 -0.394537,0.03933 h -0.240736 v 0.498149 0.498149 H 16.59324 16.30858 Z m 0.85397,-0.130836 c 0.204588,-0.03665 0.306775,-0.101058 0.375357,-0.236603 0.07724,-0.152667 0.06177,-0.286764 -0.04755,-0.412054 -0.08834,-0.101252 -0.307718,-0.161706 -0.499755,-0.137713 l -0.112727,0.0141 v 0.384857 0.384856 h 0.05083 c 0.02796,0 0.05084,0.0098 0.05084,0.02171 0,0.01195 0.01605,0.01702 0.03559,0.01129 0.0196,-0.0056 0.0859,-0.01941 0.147413,-0.03043 z m 1.321617,0.495576 v -1.006464 h 0.294826 0.29482 v 1.006464 1.006466 h -0.29482 -0.294826 z m 6.501852,0.05199 c -0.0057,-0.52496 -0.006,-0.977869 -4.8e-4,-1.006465 l 0.0099,-0.05199 h 0.253751 0.253751 l -0.0069,0.101675 c -0.005,0.07155 4.8e-4,0.101672 0.01839,0.101664 0.01398,-6e-6 0.02541,-0.01294 0.02541,-0.02871 0,-0.03802 0.11204,-0.131082 0.213494,-0.17733 0.05596,-0.0255 0.130506,-0.03721 0.23891,-0.03752 l 0.157576,-4.58e-4 v 0.190323 c 0,0.104676 0.0057,0.232773 0.01293,0.284657 0.01263,0.09214 0.01162,0.09434 -0.04198,0.09434 -0.03021,0 -0.07105,-0.0086 -0.09073,-0.01916 -0.04549,-0.02433 -0.184228,0.02157 -0.28569,0.09452 -0.143481,0.103136 -0.151665,0.144977 -0.159292,0.814217 l -0.0067,0.59473 h -0.290711 -0.290709 z m 1.407536,-0.05199 v -1.006464 h 0.294822 0.294826 v 1.006464 1.006466 h -0.294826 -0.294822 z m 10.588709,0.05199 c -0.0057,-0.52496 -0.0059,-0.977869 -9.61e-4,-1.006465 l 0.0099,-0.05199 h 0.253747 0.253751 l -0.007,0.101675 c -0.005,0.07155 4.8e-4,0.101672 0.01839,0.101664 0.01398,-6e-6 0.0254,-0.01294 0.0254,-0.02871 0,-0.03802 0.112039,-0.131082 0.213493,-0.17733 0.05595,-0.0255 0.130505,-0.03721 0.238908,-0.03752 l 0.157578,-4.58e-4 v 0.190323 c 0,0.104676 0.0057,0.232773 0.01293,0.284657 0.01263,0.09214 0.01167,0.09434 -0.04198,0.09434 -0.03022,0 -0.07106,-0.0086 -0.09075,-0.01916 -0.04549,-0.02433 -0.184227,0.02157 -0.285691,0.09452 -0.143479,0.103136 -0.151664,0.144977 -0.15929,0.814217 l -0.0067,0.59473 h -0.290831 -0.29071 z m 3.745785,0.182803 v -0.771669 l -0.127077,-0.0059 -0.127081,-0.0059 -0.0055,-0.228742 -0.0056,-0.228743 h 0.132825 0.132832 l 2.01e-4,-0.07624 c 2.42e-4,-0.144656 0.04246,-0.340941 0.0998,-0.464368 0.07145,-0.153828 0.177719,-0.262055 0.325272,-0.33125 0.105843,-0.04963 0.133278,-0.05327 0.402332,-0.05327 0.19401,0 0.296569,0.0078 0.312606,0.02389 0.01729,0.0173 0.01979,0.08925 0.009,0.261236 l -0.01485,0.237352 -0.06395,-0.01252 c -0.183037,-0.03586 -0.246748,-0.03451 -0.312203,0.0065 -0.0808,0.05076 -0.138883,0.161809 -0.157888,0.301836 l -0.0145,0.106746 h 0.215398 0.215399 v 0.233826 0.233826 h -0.213639 -0.213492 v 0.772638 0.772639 H 41.02306 40.728238 v -0.771902 z m 2.866899,-0.682113 v -1.453783 h 0.294822 0.294826 v 0.782169 c 0,0.686907 0.004,0.780742 0.0305,0.770465 0.01681,-0.0063 0.03049,-0.02473 0.03049,-0.04068 0,-0.01593 0.01374,-0.03422 0.0305,-0.04067 0.01677,-0.0063 0.0305,-0.02057 0.0305,-0.03138 0,-0.02578 0.167664,-0.240288 0.187806,-0.240288 0.0085,0 0.01551,-0.01402 0.01551,-0.03115 0,-0.01713 0.01374,-0.03639 0.0305,-0.04284 0.01676,-0.0063 0.0305,-0.02474 0.0305,-0.04067 0,-0.01594 0.01374,-0.03422 0.0305,-0.04067 0.01681,-0.0063 0.03049,-0.02473 0.03049,-0.04067 0,-0.01593 0.01374,-0.03422 0.0305,-0.04067 0.01681,-0.0063 0.0305,-0.02445 0.0305,-0.04002 0,-0.02313 0.06523,-0.02831 0.355819,-0.02831 0.350541,0 0.355824,6.72e-4 0.355824,0.0437 0,0.03927 -0.165487,0.235756 -0.459794,0.545933 -0.132019,0.139139 -0.211182,0.236851 -0.211182,0.260669 0,0.01182 0.02636,0.05033 0.05855,0.0856 0.03223,0.03525 0.07109,0.08794 0.08642,0.11708 0.01532,0.02914 0.04845,0.07537 0.07361,0.102772 0.02517,0.02739 0.04572,0.05714 0.04572,0.06612 0,0.0089 0.02286,0.041 0.05083,0.07116 0.02795,0.03017 0.05084,0.06219 0.05084,0.07116 0,0.0089 0.02286,0.041 0.05084,0.07116 0.02795,0.03017 0.05083,0.06209 0.05083,0.07096 0,0.0088 0.02636,0.04496 0.05856,0.08021 0.03218,0.03526 0.0711,0.08795 0.08642,0.11708 0.01532,0.02914 0.04843,0.07538 0.07361,0.102772 0.02517,0.02738 0.04572,0.06219 0.04572,0.07734 0,0.01514 0.0092,0.02753 0.02031,0.02753 0.01119,0 0.02032,0.02287 0.02032,0.05084 v 0.05084 h -0.35309 -0.353043 l -0.145107,-0.219613 c -0.07981,-0.120703 -0.145108,-0.230498 -0.145108,-0.243991 0,-0.01349 -0.0091,-0.02454 -0.02031,-0.02454 -0.01118,0 -0.02036,-0.01373 -0.02036,-0.0305 0,-0.01678 -0.0067,-0.03058 -0.01522,-0.03067 -0.0083,-1.02e-4 -0.05049,-0.05488 -0.0936,-0.121759 l -0.07832,-0.121582 -0.04875,0.07184 c -0.0464,0.06838 -0.04874,0.08744 -0.04874,0.39625 v 0.324417 h -0.294824 -0.294822 z m 4.249517,0 v -1.453915 h 0.233824 c 0.214132,-0.0037 0.216308,-0.0017 0.346742,4.09e-4 -10e-6,0.04293 0.0087,0.6932 0.0088,1.478802 l 2.25e-4,1.428366 h -0.294807 -0.294821 z m 1.016629,0 v -1.453783 h 0.294825 0.294821 v 1.453783 1.453783 h -0.294821 -0.294825 z m -17.648709,0.355815 v -0.203326 h 0.548981 0.548981 v 0.203326 0.203327 h -0.548981 -0.548981 z m -12.63138,-1.15012 c -0.08006,-0.04345 -0.11717,-0.129942 -0.11717,-0.273161 0,-0.225358 0.08228,-0.30499 0.315158,-0.30499 0.232868,0 0.315153,0.07963 0.315153,0.30499 0,0.227173 -0.08227,0.30557 -0.319226,0.304174 -0.08227,-4.81e-4 -0.160794,-0.01304 -0.193915,-0.03102 z m 7.909388,0 c -0.08006,-0.04345 -0.117168,-0.129942 -0.117168,-0.273161 0,-0.225358 0.08228,-0.30499 0.315152,-0.30499 0.232873,0 0.315157,0.07963 0.315157,0.30499 0,0.227173 -0.08228,0.30557 -0.31923,0.304174 -0.08227,-4.81e-4 -0.160789,-0.01304 -0.193911,-0.03102 z m -11.041081,-3.970619 -0.808437,-0.809468 -9.6e-4,-2.07237 c -9.61e-4,-2.03508 -1.64e-4,-2.076379 0.04246,-2.295406 0.07982,-0.410005 0.242378,-0.822442 0.467027,-1.184993 0.05717,-0.09226 0.112625,-0.167745 0.123235,-0.167745 0.01061,0 0.0193,-0.01402 0.0193,-0.03113 0,-0.01713 0.01374,-0.0364 0.03049,-0.04284 0.01682,-0.0063 0.0305,-0.0223 0.0305,-0.03525 0,-0.02572 0.213717,-0.270769 0.32141,-0.368527 0.03699,-0.03358 0.118701,-0.109089 0.181582,-0.167799 0.06287,-0.05871 0.12542,-0.106747 0.138979,-0.106747 0.01359,0 0.02992,-0.01372 0.03636,-0.0305 0.0063,-0.01678 0.0257,-0.0305 0.04284,-0.0305 0.01714,0 0.03113,-0.0083 0.03113,-0.01851 0,-0.0547 0.55996,-0.349028 0.866101,-0.455249 0.438508,-0.152149 0.766316,-0.19904 1.319653,-0.18877 0.419986,0.0078 0.726676,0.05999 1.084743,0.18463 0.310729,0.108158 0.771768,0.339631 0.792637,0.397957 0.004,0.01042 0.01974,0.01895 0.03559,0.01895 0.01585,0 0.02882,0.0091 0.02882,0.02033 0,0.01119 0.01167,0.02034 0.02594,0.02034 0.07355,0 0.767022,0.651625 0.767022,0.720737 0,0.01498 0.01374,0.03247 0.03049,0.03892 0.01681,0.0063 0.0305,0.02572 0.0305,0.04284 0,0.01713 0.0085,0.03115 0.01907,0.03115 0.01051,0 0.07183,0.08465 0.136284,0.188077 0.506695,0.813222 0.62848,1.84905 0.329287,2.800818 -0.06446,0.205057 -0.293725,0.694297 -0.357307,0.762473 -0.0209,0.02237 -0.04323,0.05439 -0.04968,0.07116 -0.04399,0.114172 -0.581737,0.711641 -0.640496,0.711641 -0.0148,0 -0.02685,0.0083 -0.02685,0.01861 0,0.01996 -0.233948,0.202201 -0.284658,0.221743 -0.01681,0.0063 -0.04678,0.02687 -0.06667,0.04533 -0.05711,0.05303 -0.415943,0.234627 -0.615564,0.311522 -0.217849,0.08392 -0.622203,0.184945 -0.869263,0.217184 -0.09848,0.01286 -0.292473,0.02015 -0.431111,0.01622 -0.250201,-0.007 -0.252575,-0.0075 -0.31911,-0.07053 -0.03689,-0.03486 -0.121933,-0.11353 -0.189031,-0.17482 -0.06709,-0.06129 -0.176894,-0.16169 -0.243991,-0.223112 -0.0671,-0.06142 -0.186044,-0.16992 -0.264323,-0.241109 -0.193363,-0.175842 -0.324499,-0.297798 -0.457483,-0.425451 -0.06151,-0.05904 -0.141568,-0.130158 -0.177913,-0.158039 -0.038,-0.02917 -0.06608,-0.0691 -0.06609,-0.09403 l -9e-6,-0.04333 h 0.869228 c 0.746767,0 0.894208,-0.0049 1.046564,-0.03558 0.250446,-0.05026 0.487887,-0.141873 0.672922,-0.259649 0.0875,-0.05569 0.162691,-0.10125 0.167115,-0.10125 0.0045,0 0.07393,-0.06634 0.154479,-0.147412 0.24863,-0.250277 0.426388,-0.559748 0.517784,-0.901436 0.05696,-0.212935 0.05289,-0.614634 -0.0084,-0.840727 -0.0544,-0.20031 -0.150525,-0.414363 -0.254918,-0.567632 -0.04074,-0.05983 -0.0741,-0.110978 -0.0741,-0.113653 0,-0.01046 -0.154728,-0.181797 -0.19198,-0.212581 -0.02171,-0.01794 -0.06588,-0.05779 -0.09815,-0.08854 -0.03227,-0.03076 -0.06221,-0.05592 -0.06657,-0.05592 -0.0045,0 -0.06339,-0.03586 -0.131207,-0.0797 -0.260485,-0.168363 -0.648955,-0.285766 -0.945544,-0.285766 -0.30521,0 -0.68479,0.11713 -0.955255,0.294775 -0.07621,0.05005 -0.142341,0.091 -0.146951,0.091 -0.01945,0 -0.331243,0.324802 -0.331243,0.34506 0,0.01221 -0.01374,0.02746 -0.0305,0.0339 -0.01681,0.0063 -0.0305,0.01867 -0.0305,0.02717 0,0.0085 -0.03621,0.07844 -0.08047,0.155402 -0.09656,0.167925 -0.191475,0.44601 -0.228191,0.668585 -0.02128,0.128843 -0.02685,0.715368 -0.02685,2.821153 0,2.64504 -2.02e-4,2.658489 -0.04068,2.658174 -0.02623,-2.03e-4 -0.327756,-0.28777 -0.849104,-0.809782 z m 2.414166,-3.582943 c -0.0674,-0.02099 -0.1425,-0.05676 -0.166895,-0.07948 -0.0244,-0.02272 -0.05202,-0.04132 -0.0614,-0.04132 -0.02094,0 -0.167639,-0.148288 -0.167639,-0.169451 0,-0.0083 -0.01801,-0.03459 -0.04005,-0.05825 -0.02205,-0.02366 -0.05963,-0.10177 -0.08353,-0.173588 -0.05996,-0.180179 -0.04984,-0.511869 0.02051,-0.671252 0.02589,-0.05872 0.05512,-0.106747 0.06492,-0.106747 0.0098,0 0.01782,-0.01402 0.01782,-0.03114 0,-0.01713 0.01374,-0.03639 0.0305,-0.04284 0.01681,-0.0063 0.0305,-0.02291 0.0305,-0.03663 0,-0.01371 0.0364,-0.05419 0.08094,-0.08995 0.187378,-0.150582 0.418099,-0.219639 0.664405,-0.198865 0.148941,0.01256 0.372951,0.08238 0.372951,0.116234 0,0.01037 0.01374,0.01888 0.0305,0.01888 0.01681,0 0.0305,0.0091 0.0305,0.02034 0,0.01118 0.01192,0.02032 0.02651,0.02032 0.02766,0 0.156481,0.122857 0.156481,0.14923 0,0.0083 0.01825,0.03475 0.04064,0.05873 0.105858,0.113625 0.164099,0.423201 0.123494,0.656388 -0.04683,0.26902 -0.222622,0.504511 -0.466475,0.62495 -0.119205,0.05888 -0.147581,0.06432 -0.355823,0.0683 -0.173652,0.0035 -0.254794,-0.0048 -0.348827,-0.03385 z"
       id="path163"
       sodipodi:nodetypes="cssssssssssssscssssssssscsscccsssssssssssscsccssssssssssssssssssssscccsssssssssssssscccssssssssssssssssssscssssssscssscsssssscscccssscsscsssssssscccscsssscssssssscccccccccssssccsccsscsscccccccccssscsssscccccccccccccccccccccssccssssssssssssccssscccccccssssssscccssscccccccscssscccccccssssccccscccsscccccssscccccccsssccscscccssccccccsssscccccccsccsccscsscscsssssssssssssssscssssssssssssccssssssssssssssssscsscssssssssssssssssssssssccssssssssssssssscsscsssssscssssscsssssscssscssssssssssssccssssssssssssssssssscsscsssssssscssscsccccssssssssscssssssssssccscccccccscccccccsccsssscsssssssccccccsccccccssssscccccccccccccccsssccscscsscccccccccccccccccccsssccscssscccccccccccccccsssccssccccccccccccccccccscscssscscscssssssssscscssssssscccsssssscsscccccccscccccccssccccccssscccccsssccssscscsscssssssssssssssssssssscsscssssssssssssssssscsssssssssssssssssssssssccsssssssssssssssssscssssssss" />
    <rect
       style="fill:#191f51;fill-opacity:1;stroke-width:0.0000000"
       id="headerVerticalMenuBar"
       width="64.004135"
       height="14.130197"
       x="2.02492"
       y="35.272881"
       ry="0" />
    <rect
       style="fill:#191f51;fill-opacity:1;stroke-width:0.0000000"
       id="rect857"
       width="3.3626692"
       height="30.768526"
       x="62.665695"
       y="4.7028246"
       ry="0" />
    <rect
       style="fill:#191f51;fill-opacity:1;stroke-width:0.0000000"
       id="headerHorizontalMenuBar"
       width="345.13568"
       height="14"
       x="62.688896"
       y="2.3174632" />
    <path
       style="fill:#b3b3b3;fill-opacity:1;stroke-width:0.0317698"
       d="m 10.942435,29.236222 c -0.916301,-0.574977 -1.7611192,-1.491887 -2.3120472,-2.509344 -0.0827,-0.152727 -0.1618291,-0.284786 -0.1758455,-0.293467 -0.014016,-0.0086 -0.1298643,0.01962 -0.2574379,0.0629 -0.127574,0.04327 -0.2446235,0.07866 -0.2601093,0.07865 -0.0475,-4e-5 -0.3312634,-0.629916 -0.4653338,-1.03292 C 7.1823878,24.672507 7.0496424,23.860588 7.0456722,22.936547 L 7.0427922,22.26938 6.7966183,22.22204 6.5504435,22.1747 6.5506086,21.987154 c 2.038e-4,-0.238404 0.1080624,-0.886323 0.2227719,-1.338258 0.1321742,-0.520743 0.286828,-0.911787 0.6531359,-1.65146 0.496546,-1.00266 0.8625071,-1.528134 1.5200764,-2.182646 0.517271,-0.514863 0.434734,-0.50569 0.839778,-0.09334 0.3221272,0.327951 0.4789002,0.449871 0.8434072,0.655899 l 0.151535,0.08566 -0.487344,0.482314 c -0.6903712,0.683242 -1.0168572,1.11819 -1.3747442,1.831438 -0.4535883,0.903978 -0.6371208,1.805961 -0.6366954,3.129085 3.43e-4,1.067972 0.081044,1.653067 0.3330844,2.414788 0.468333,1.41543 1.309542,2.478915 2.7339102,3.456298 0.153004,0.10499 0.278174,0.209356 0.278154,0.231927 -5e-5,0.05832 -0.28418,0.428357 -0.328704,0.428094 -0.02035,-1.13e-4 -0.180809,-0.09046 -0.356549,-0.200724 z"
       id="path861" />
    <path
       style="fill:#b3b3b3;fill-opacity:1;stroke-width:0.0317698"
       d="m 12.45453,14.883957 c -0.08212,-0.05449 -0.195214,-0.165392 -0.251325,-0.246434 -0.09095,-0.131375 -0.103219,-0.175681 -0.113086,-0.40865 -0.01332,-0.314651 0.05348,-0.484632 0.259773,-0.660897 0.34027,-0.290747 0.840326,-0.257274 1.141249,0.07639 0.174053,0.192993 0.195992,0.251965 0.196977,0.529482 9.61e-4,0.281138 -0.04205,0.396721 -0.216928,0.582394 -0.16655,0.176834 -0.300219,0.227286 -0.601494,0.227025 -0.244423,-2.16e-4 -0.277903,-0.0082 -0.415166,-0.09931 z"
       id="path863" />
    <path
       style="fill:#b3b3b3;fill-opacity:1;stroke-width:0.0317698"
       d="m 8.9946778,12.321842 c -0.01164,-0.01166 -0.02066,-0.598266 -0.02005,-1.303572 9.12e-4,-1.0347285 0.0092,-1.2854844 0.04318,-1.2984764 0.05709,-0.021853 2.0541582,0.6759374 2.0541222,0.7177234 -9e-6,0.01043 -0.110861,0.07358 -0.246335,0.140347 -0.689011,0.339542 -1.2397542,0.831776 -1.5942642,1.424893 -0.111868,0.187161 -0.206119,0.340291 -0.209446,0.340288 -0.0034,-3e-6 -0.01557,-0.0095 -0.02721,-0.02121 z"
       id="path865" />
    <path
       style="fill:#b3b3b3;fill-opacity:1;stroke-width:0.0317698"
       d="m 21.588142,12.12361 c -0.456159,-0.752987 -0.958182,-1.229582 -1.648211,-1.564726 -0.142618,-0.06927 -0.254478,-0.140384 -0.248577,-0.158032 0.0057,-0.01765 0.09551,-0.06631 0.199106,-0.108143 0.329644,-0.133086 1.763792,-0.639137 1.811205,-0.6390957 0.03887,3.37e-5 0.0454,0.1986042 0.0444,1.3502517 -6.25e-4,0.742616 -0.0049,1.350208 -0.0097,1.350203 -0.0049,-4e-6 -0.07141,-0.10371 -0.148183,-0.230458 z"
       id="path867" />
    <path
       style="fill:#b3b3b3;fill-opacity:1;stroke-width:0.00794244"
       d="m 17.339345,29.643303 c -0.181841,-0.01446 -0.298364,-0.04307 -0.457586,-0.112285 -0.08747,-0.03803 -0.176064,-0.0897 -0.182469,-0.106443 -0.0027,-0.0066 -0.0133,-0.01552 -0.02386,-0.01954 -0.0316,-0.01205 -0.143565,-0.116002 -0.208756,-0.193834 -0.146646,-0.175084 -0.233896,-0.362491 -0.274369,-0.589323 -0.01499,-0.08399 -0.01702,-0.125044 -0.01706,-0.345509 -6.2e-5,-0.259352 0.0064,-0.342504 0.0364,-0.461554 0.0374,-0.148914 0.128626,-0.365819 0.170128,-0.404553 0.01136,-0.01059 0.02748,-0.03434 0.03584,-0.05275 0.02687,-0.05925 0.27699,-0.303834 0.310679,-0.303804 0.0054,4e-6 0.02166,-0.01194 0.03586,-0.02652 0.04858,-0.04995 0.249809,-0.135672 0.422688,-0.180086 0.142083,-0.0365 0.240643,-0.04242 0.523744,-0.03147 0.257694,0.01 0.341799,0.01925 0.43931,0.04855 0.131507,0.03949 0.157553,0.066 0.142491,0.14506 -0.0072,0.03853 -0.07637,0.275799 -0.08183,0.281243 -0.0049,0.005 -0.133794,-0.02077 -0.225697,-0.04514 -0.140156,-0.03716 -0.20916,-0.0482 -0.331648,-0.05306 -0.08066,-0.0033 -0.133786,-0.0011 -0.193477,0.0081 -0.143083,0.02182 -0.358675,0.103236 -0.421016,0.159002 -0.01596,0.01427 -0.0399,0.0315 -0.05323,0.0383 -0.03203,0.01633 -0.128143,0.117956 -0.170641,0.18042 -0.06119,0.08993 -0.12496,0.24318 -0.159917,0.384286 -0.03133,0.126476 -0.02874,0.402485 0.0052,0.568239 0.01724,0.08392 0.02991,0.119465 0.07809,0.219175 0.09802,0.202901 0.249077,0.348374 0.453932,0.437154 0.08804,0.03815 0.167504,0.05704 0.28617,0.06801 0.181759,0.0168 0.367373,-9.14e-4 0.545446,-0.05199 0.184898,-0.05305 0.196833,-0.04515 0.246731,0.16329 0.02649,0.110624 0.02628,0.14478 -9.12e-4,0.166163 -0.04804,0.03773 -0.246501,0.08366 -0.445908,0.103212 -0.119197,0.01169 -0.381482,0.01582 -0.484409,0.0076 z"
       id="path869" />
    <path
       style="fill:#b3b3b3;fill-opacity:1;stroke-width:0.00794244"
       d="m 19.207787,29.636027 c -0.110686,-0.01414 -0.212055,-0.04848 -0.309664,-0.104878 -0.07039,-0.04068 -0.256857,-0.220688 -0.263582,-0.254464 -0.0025,-0.01239 -0.01144,-0.02672 -0.01996,-0.03185 -0.03723,-0.02242 -0.126126,-0.247188 -0.149781,-0.378749 -0.01437,-0.0799 -0.01428,-0.40107 1.27e-4,-0.492431 0.02252,-0.14272 0.132462,-0.416499 0.179656,-0.447365 0.01124,-0.0072 0.0274,-0.02699 0.03592,-0.04366 0.04817,-0.09423 0.291444,-0.250386 0.461541,-0.296273 0.06381,-0.01722 0.08087,-0.01817 0.30977,-0.01746 0.277314,9.13e-4 0.303553,0.0049 0.427038,0.06338 0.229381,0.108903 0.378946,0.27255 0.473331,0.517896 0.0382,0.09931 0.05192,0.186473 0.05728,0.364154 0.01025,0.339091 -0.03413,0.540755 -0.160766,0.730722 -0.0929,0.139376 -0.20514,0.236656 -0.35809,0.310398 -0.09685,0.04669 -0.169984,0.06807 -0.277766,0.08117 -0.08297,0.01009 -0.324124,0.0097 -0.405064,-6.24e-4 z m 0.330489,-0.384686 c 0.05827,-0.01723 0.116328,-0.04738 0.126002,-0.06542 0.0046,-0.0081 0.01853,-0.01917 0.03147,-0.02452 0.02914,-0.01204 0.08372,-0.08054 0.140246,-0.176016 0.128646,-0.217274 0.137428,-0.481865 0.02415,-0.727602 -0.07149,-0.155081 -0.200082,-0.273618 -0.329222,-0.303478 -0.04997,-0.01155 -0.147366,-0.01056 -0.194633,0.002 -0.101207,0.02687 -0.197483,0.08945 -0.24756,0.160916 -0.03987,0.05692 -0.107563,0.190377 -0.129529,0.255397 -0.03253,0.09631 -0.03523,0.312017 -0.0053,0.440691 0.04615,0.199809 0.19164,0.370134 0.371626,0.435088 0.05296,0.0191 0.153611,0.02051 0.212962,0.0031 z"
       id="path871" />
    <path
       style="fill:#b3b3b3;fill-opacity:1;stroke-width:0.00794244"
       d="m 21.499174,29.641756 c -0.194477,-0.01078 -0.312792,-0.04757 -0.458854,-0.1427 -0.190599,-0.124132 -0.324106,-0.332188 -0.370357,-0.577166 -0.01807,-0.09569 -0.02963,-0.283295 -0.02387,-0.387492 0.0077,-0.140891 0.01954,-0.210176 0.05324,-0.31368 0.03608,-0.110843 0.113283,-0.273915 0.129667,-0.273901 0.006,5e-6 0.01552,-0.01338 0.02084,-0.02977 0.01916,-0.05913 0.221258,-0.232547 0.339695,-0.291494 0.0973,-0.04843 0.137608,-0.0531 0.426593,-0.04948 0.283571,0.0037 0.280052,0.0031 0.403049,0.06747 0.109355,0.05736 0.252043,0.21525 0.31612,0.349802 0.06514,0.136797 0.08634,0.268824 0.08613,0.536624 l -1.27e-4,0.180689 -0.671136,-6.24e-4 c -0.460228,-3.82e-4 -0.671137,0.0021 -0.671141,0.0076 -2.6e-5,0.02959 0.02857,0.136887 0.05222,0.195873 0.06862,0.17118 0.116631,0.226001 0.260089,0.296957 0.132287,0.06543 0.178149,0.07438 0.353478,0.06897 0.151945,-0.0049 0.238901,-0.01915 0.359185,-0.05977 0.100129,-0.03381 0.129519,-0.03745 0.148503,-0.01844 0.01716,0.01719 0.073,0.232086 0.07265,0.279634 -3.83e-4,0.05016 -0.04172,0.08039 -0.151415,0.11069 -0.146191,0.04037 -0.446802,0.06269 -0.674562,0.05006 z m 0.466117,-1.302791 c -0.0241,-0.168811 -0.116458,-0.3201 -0.2291,-0.375276 -0.07146,-0.03501 -0.152041,-0.04565 -0.227692,-0.03008 -0.150913,0.03106 -0.247115,0.111479 -0.329795,0.275711 -0.02944,0.05848 -0.05965,0.139554 -0.05966,0.160141 -4e-6,0.0037 0.191616,0.0065 0.425817,0.0068 l 0.425822,3.81e-4 z"
       id="path873" />
    <path
       style="fill:#b3b3b3;fill-opacity:1;stroke-width:0.0112323"
       d="m 22.970723,29.631415 c -0.09084,-0.01147 -0.23647,-0.05708 -0.292062,-0.09148 -0.04646,-0.02874 -0.04669,-0.05076 -0.0023,-0.199981 0.05711,-0.191611 0.06693,-0.196901 0.230506,-0.124053 0.244353,0.108828 0.465263,0.103728 0.586663,-0.01354 0.03541,-0.03419 0.07392,-0.127605 0.06485,-0.157299 -0.0024,-0.0074 -0.0072,-0.02788 -0.01109,-0.04522 -0.0095,-0.04331 -0.08688,-0.124617 -0.156279,-0.16414 -0.03163,-0.01802 -0.110576,-0.05376 -0.175421,-0.07941 -0.13892,-0.05496 -0.25357,-0.116974 -0.27253,-0.147391 -0.0074,-0.01195 -0.02166,-0.02172 -0.03158,-0.02173 -0.02257,-1.8e-5 -0.09584,-0.07025 -0.105666,-0.10126 -0.0042,-0.01272 -0.01917,-0.035 -0.03366,-0.04952 -0.0363,-0.03637 -0.06181,-0.128087 -0.06901,-0.248156 -0.01513,-0.252378 0.09725,-0.448447 0.320204,-0.558666 l 0.09612,-0.04752 0.309718,2.53e-4 0.309719,2.54e-4 0.06734,0.0316 c 0.0919,0.04313 0.117911,0.06961 0.117867,0.120051 -4.2e-5,0.04978 -0.06024,0.231693 -0.0861,0.260232 -0.0266,0.02934 -0.05527,0.026 -0.174122,-0.02037 -0.08726,-0.03406 -0.123461,-0.04192 -0.214372,-0.0466 -0.135285,-0.0069 -0.198151,0.0086 -0.256115,0.06371 -0.03284,0.03119 -0.04414,0.05215 -0.05038,0.09342 -0.02003,0.132797 0.03547,0.184018 0.354602,0.327209 0.187498,0.08412 0.232335,0.107977 0.278339,0.14803 0.133361,0.116114 0.176291,0.182378 0.198208,0.305935 0.02934,0.165441 0.01621,0.339249 -0.03389,0.448433 -0.03717,0.08099 -0.169399,0.213197 -0.254323,0.254257 -0.1123,0.0543 -0.17928,0.06551 -0.414964,0.06951 -0.120468,0.0022 -0.255628,-9.12e-4 -0.300356,-0.0064 z"
       id="path875" />
    <path
       style="fill:#b3b3b3;fill-opacity:1;stroke-width:0.0112323"
       d="m 24.406282,28.78503 7.69e-4,-0.825574 -0.140405,-1.23e-4 -0.140402,-1.21e-4 1.25e-4,-0.190948 1.27e-4,-0.190949 0.140404,1.22e-4 0.140404,1.21e-4 2.54e-4,-0.126363 c 3.81e-4,-0.15762 0.03003,-0.307758 0.08287,-0.418755 0.0703,-0.147698 0.262215,-0.313153 0.398586,-0.343625 0.08884,-0.01986 0.438792,-0.01933 0.516795,7.7e-4 0.0329,0.0084 0.06242,0.02222 0.0656,0.03052 0.0076,0.0201 -0.01676,0.242135 -0.03121,0.28349 -0.01724,0.04936 -0.04763,0.0572 -0.193155,0.04992 -0.141071,-0.007 -0.214704,0.005 -0.268787,0.04321 -0.06448,0.04583 -0.122433,0.208679 -0.138285,0.388547 l -0.0081,0.09266 0.231431,2.55e-4 0.23143,2.54e-4 -1.27e-4,0.190949 -1.26e-4,0.190948 -0.23588,-2.53e-4 -0.235877,-2.56e-4 -7.68e-4,0.825574 -7.69e-4,0.825574 -0.207797,-1.28e-4 -0.207797,-1.28e-4 z"
       id="path877" />
    <path
       style="fill:#b3b3b3;fill-opacity:1;stroke-width:0.0112323"
       d="m 26.121402,29.633932 c -0.112194,-0.01007 -0.18313,-0.03086 -0.294874,-0.08639 -0.252203,-0.125342 -0.399657,-0.334133 -0.462,-0.654184 -0.02288,-0.117461 -0.025,-0.405426 -0.004,-0.528719 0.02305,-0.134639 0.127496,-0.397435 0.163401,-0.411179 0.0084,-0.0033 0.01828,-0.01739 0.02183,-0.03146 0.0087,-0.03465 0.167505,-0.184344 0.262139,-0.247152 0.117442,-0.07795 0.172138,-0.09273 0.374013,-0.101193 0.09574,-0.0041 0.229215,-0.0023 0.296571,0.0042 0.106377,0.0098 0.133662,0.01685 0.207711,0.05352 0.179838,0.08907 0.334923,0.2866 0.393598,0.501306 0.02517,0.09211 0.04445,0.293975 0.04456,0.466733 l 7.9e-5,0.11513 -0.673938,-6.24e-4 c -0.64008,-5.29e-4 -0.673938,3.81e-4 -0.673954,0.01952 -7e-5,0.08005 0.09809,0.31146 0.16232,0.38268 0.02204,0.02444 0.08298,0.06514 0.146321,0.09772 l 0.108552,0.05586 0.185274,0.0041 c 0.200233,0.0044 0.279414,-0.0049 0.413061,-0.04853 0.04705,-0.01531 0.102868,-0.02782 0.12406,-0.02781 0.03626,3e-5 0.03945,0.0033 0.05427,0.05339 0.0086,0.02934 0.02475,0.09535 0.03575,0.146642 0.01972,0.09193 0.01968,0.09369 -0.0027,0.123554 -0.0428,0.05734 -0.187195,0.09394 -0.447272,0.1134 -0.174096,0.01303 -0.287841,0.01297 -0.435018,-2.54e-4 z m 0.538079,-1.315899 c -0.01533,-0.116866 -0.09641,-0.271705 -0.167968,-0.320839 -0.09929,-0.06816 -0.250286,-0.0876 -0.360683,-0.04639 -0.126277,0.04713 -0.273274,0.228226 -0.307159,0.378428 l -0.0106,0.04704 0.42708,3.82e-4 0.42708,3.82e-4 z"
       id="path879" />
    <path
       style="fill:#b3b3b3;fill-opacity:1;stroke-width:0.0112323"
       d="m 27.916115,27.501975 c 6.3e-5,-0.07105 0.002,-0.100107 0.0042,-0.06458 0.0023,0.03552 0.0023,0.09364 -1.1e-4,0.129169 -0.0023,0.03552 -0.0042,0.0063 -0.0041,-0.06459 z"
       id="path881" />
    <path
       style="fill:#b3b3b3;fill-opacity:1;stroke-width:0.0112323"
       d="m 28.951976,29.635228 c -0.116076,-0.0117 -0.286162,-0.0971 -0.383143,-0.192353 -0.04098,-0.04024 -0.07449,-0.08117 -0.07448,-0.09095 9e-6,-0.0098 -0.0094,-0.02285 -0.02099,-0.02905 -0.02914,-0.01563 -0.105905,-0.167489 -0.147307,-0.291425 -0.06943,-0.207844 -0.07199,-0.572964 -0.0054,-0.800993 0.0392,-0.134677 0.1091,-0.280857 0.157288,-0.328962 0.0222,-0.02216 0.04038,-0.04713 0.04039,-0.05547 1.4e-5,-0.0164 0.08334,-0.09634 0.100405,-0.09633 0.0056,5e-6 0.02926,-0.01774 0.05228,-0.03941 0.12158,-0.114467 0.404645,-0.174568 0.6619,-0.140534 0.157949,0.02089 0.221287,0.04286 0.297566,0.10318 0.05377,0.04252 0.08066,0.04557 0.09078,0.01033 0.0046,-0.01544 0.0087,-0.241627 0.0096,-0.502636 l 0.0016,-0.474564 0.217862,1.28e-4 0.217861,1.27e-4 0.0044,1.401231 c 0.0024,0.770678 0.0075,1.411345 0.01171,1.423704 0.0046,0.01317 7.68e-4,0.03177 -0.0089,0.04493 -0.01518,0.02067 -0.03171,0.02272 -0.208358,0.02583 l -0.191878,0.0035 8.2e-5,-0.09622 c 1.03e-4,-0.118181 -0.0089,-0.1215 -0.100371,-0.03696 -0.07979,0.07375 -0.198757,0.136923 -0.287244,0.152548 -0.08318,0.01469 -0.333149,0.02063 -0.435097,0.01035 z m 0.455669,-0.423535 c 0.09706,-0.04694 0.210739,-0.178833 0.258047,-0.299417 0.06724,-0.171383 0.05024,-0.546338 -0.03219,-0.709578 -0.04043,-0.08007 -0.130459,-0.169376 -0.212954,-0.211224 -0.05983,-0.03034 -0.07583,-0.03335 -0.178059,-0.03343 -0.102095,-8.1e-5 -0.117952,0.003 -0.174128,0.03231 -0.07963,0.04174 -0.187059,0.151522 -0.232018,0.237079 -0.141869,0.269987 -0.105782,0.68457 0.07566,0.86913 0.05826,0.05925 0.104442,0.09122 0.174736,0.120905 0.08736,0.0369 0.238279,0.03417 0.320903,-0.0056 z"
       id="path883" />
    <path
       style="fill:#b3b3b3;fill-opacity:1;stroke-width:0.0112323"
       d="m 27.473246,28.153064 0.0013,-1.448967 0.219029,1.28e-4 0.219031,1.27e-4 -0.0013,1.448966 -0.0013,1.448964 -0.219031,-1.28e-4 -0.219029,-1.25e-4 z"
       id="path885" />
    <path
       style="fill:#999999;fill-opacity:1;stroke-width:0.0635394"
       d="M 10.930154,29.181124 C 10.131011,28.67207 9.4020648,27.903038 8.8210368,26.956026 L 8.4966386,26.427291 8.1992869,26.467931 7.9019354,26.508571 7.702857,26.029193 C 7.30014,25.059443 7.0640269,23.844255 7.0637987,22.740182 7.0636917,22.221518 7.0358927,22.17739 6.7091021,22.177107 c -0.084508,-7.5e-5 -0.1534648,-0.02158 -0.153236,-0.04779 2.288e-4,-0.02621 0.04291,-0.327926 0.094847,-0.67048 0.1225093,-0.808018 0.3822957,-1.570316 0.8524383,-2.501332 0.5277403,-1.045076 0.9425089,-1.609059 1.7143614,-2.331108 l 0.196296,-0.183632 0.367102,0.336096 c 0.201905,0.184853 0.4818162,0.409581 0.6220212,0.499396 0.140205,0.08981 0.266598,0.171417 0.280873,0.181343 0.01427,0.0099 -0.244768,0.296819 -0.575651,0.637538 -1.3361132,1.37583 -1.8359282,2.684545 -1.8377728,4.812024 -0.00128,1.471861 0.2080086,2.422374 0.7585666,3.445193 0.467722,0.868928 1.0685132,1.535191 2.0480972,2.27129 0.270662,0.203385 0.4921,0.381629 0.492088,0.396097 -6.9e-5,0.07806 -0.216524,0.339346 -0.28109,0.339289 -0.04156,-3.5e-5 -0.202608,-0.081 -0.357889,-0.179908 z"
       id="path891" />
    <path
       style="fill:#999999;fill-opacity:1;stroke-width:0.0224646"
       d="m 9.0002088,11.03758 c 0.0041,-0.703238 0.014,-1.2853296 0.02222,-1.2935366 0.03399,-0.033902 1.9214492,0.6136366 2.0023212,0.6869446 0.01017,0.0092 -0.09096,0.07457 -0.224772,0.145224 -0.770888,0.407046 -1.2386582,0.842811 -1.6511142,1.538133 -0.06587,0.111034 -0.127889,0.201873 -0.137835,0.201864 -0.0099,-8e-6 -0.01482,-0.575392 -0.01082,-1.278629 z"
       id="path893" />
    <path
       style="fill:#999999;fill-opacity:1;stroke-width:0.0224646"
       d="m 12.546959,14.922887 c -0.130019,-0.0645 -0.324636,-0.261349 -0.387925,-0.392378 -0.04428,-0.09168 -0.05232,-0.144141 -0.05302,-0.346251 -7.64e-4,-0.216139 0.0049,-0.250037 0.06182,-0.36598 0.07538,-0.15374 0.200579,-0.267606 0.397087,-0.361146 0.187697,-0.08935 0.410104,-0.09486 0.614525,-0.01525 0.151749,0.05909 0.384703,0.273195 0.449673,0.413268 0.06135,0.132269 0.05592,0.510407 -0.0095,0.662147 -0.07126,0.16524 -0.292964,0.37125 -0.449372,0.417551 -0.182329,0.05397 -0.502743,0.04783 -0.623259,-0.01197 z"
       id="path895" />
    <path
       style="fill:#999999;fill-opacity:1;stroke-width:0.0224646"
       d="m 21.581886,12.088827 c -0.221819,-0.356569 -0.40292,-0.587484 -0.668176,-0.851959 -0.273396,-0.272594 -0.51921,-0.451208 -0.910248,-0.661407 -0.141868,-0.07626 -0.266846,-0.147573 -0.277728,-0.158473 -0.02774,-0.02779 0.09709,-0.08649 0.502435,-0.236242 0.534638,-0.197519 1.417006,-0.5044034 1.450203,-0.5043745 0.05092,4.38e-5 0.05752,0.1909424 0.04954,1.4353725 l -0.0076,1.199445 z"
       id="path897" />
    <path
       style="fill:#999999;fill-opacity:1;stroke-width:0.0158848"
       d="m 17.259699,29.627055 c -0.132338,-0.01551 -0.311846,-0.07247 -0.452194,-0.143465 -0.119315,-0.06036 -0.376298,-0.313098 -0.454743,-0.447235 -0.134161,-0.229402 -0.187169,-0.508608 -0.168987,-0.890113 0.01636,-0.343492 0.09015,-0.575956 0.251022,-0.790918 0.189233,-0.252854 0.371906,-0.37936 0.696184,-0.482126 0.167979,-0.05324 0.39236,-0.06661 0.706825,-0.04213 0.237757,0.0185 0.378542,0.05089 0.427236,0.09825 0.02964,0.02883 0.02951,0.0319 -0.0069,0.173255 -0.02048,0.07915 -0.0426,0.152558 -0.04913,0.163132 -0.009,0.01458 -0.05915,0.0082 -0.207513,-0.02603 -0.352851,-0.08162 -0.564958,-0.07152 -0.832662,0.03966 -0.102424,0.04254 -0.146197,0.07307 -0.246235,0.1718 -0.124881,0.12324 -0.175371,0.204445 -0.234698,0.377459 -0.07294,0.212706 -0.08272,0.488039 -0.02605,0.733493 0.0682,0.295421 0.303707,0.556959 0.591224,0.656581 0.09402,0.03257 0.135493,0.03681 0.360402,0.03668 0.212638,-1.16e-4 0.275358,-0.0057 0.383915,-0.03541 0.07136,-0.0194 0.144464,-0.03525 0.162443,-0.03524 0.04129,3.5e-5 0.07365,0.06126 0.105671,0.199884 0.03182,0.137709 0.01909,0.152621 -0.167448,0.196242 -0.238239,0.05572 -0.591289,0.07519 -0.838198,0.04624 z"
       id="path899" />
    <path
       style="fill:#999999;fill-opacity:1;stroke-width:0.0158848"
       d="m 19.102229,29.605729 c -0.118234,-0.03195 -0.193147,-0.07368 -0.308305,-0.171721 -0.127035,-0.10816 -0.206313,-0.223658 -0.270028,-0.3934 -0.04673,-0.124505 -0.05061,-0.150582 -0.0567,-0.381467 -0.0056,-0.217918 -0.0025,-0.262964 0.02789,-0.373269 0.08655,-0.315385 0.223248,-0.489541 0.486695,-0.620003 l 0.155028,-0.07677 0.319147,2.79e-4 0.319149,2.79e-4 0.132029,0.06994 c 0.183964,0.09745 0.300133,0.217413 0.391446,0.404241 0.0828,0.169398 0.10328,0.274827 0.102433,0.527112 -0.0013,0.366039 -0.07789,0.581839 -0.276594,0.778601 -0.122966,0.121762 -0.253138,0.198992 -0.399379,0.236948 -0.121615,0.03156 -0.504909,0.0311 -0.622808,-7.62e-4 z m 0.481324,-0.363405 c 0.136653,-0.05695 0.269377,-0.221933 0.326972,-0.40642 0.07825,-0.250658 0.01028,-0.567298 -0.161966,-0.754487 -0.09141,-0.09933 -0.173097,-0.134528 -0.312537,-0.13465 -0.206249,-1.79e-4 -0.323044,0.08308 -0.432204,0.308107 -0.05455,0.112462 -0.0662,0.154341 -0.07424,0.266852 -0.01834,0.256708 0.04772,0.460255 0.195561,0.602539 0.109203,0.105101 0.183191,0.139286 0.303531,0.140237 0.05489,4.32e-4 0.124585,-0.0095 0.154889,-0.02218 z"
       id="path901" />
    <path
       style="fill:#999999;fill-opacity:1;stroke-width:0.0158848"
       d="m 21.322123,29.609863 c -0.299359,-0.06768 -0.531491,-0.297075 -0.628955,-0.621547 -0.02251,-0.07492 -0.02869,-0.151455 -0.02892,-0.357436 -2.45e-4,-0.231693 0.0042,-0.275895 0.03717,-0.381011 0.07234,-0.229665 0.166499,-0.374394 0.326874,-0.502367 0.190846,-0.152292 0.206386,-0.156585 0.565616,-0.156274 l 0.309755,2.79e-4 0.08694,0.04773 c 0.17859,0.09804 0.335167,0.303361 0.388735,0.509755 0.01339,0.05161 0.02891,0.195798 0.03446,0.320405 l 0.0101,0.226558 -0.293763,-2.53e-4 c -0.161572,-1.41e-4 -0.466798,0.0045 -0.678283,0.0099 l -0.384516,0.01017 0.01057,0.04907 c 0.05317,0.246659 0.171319,0.400636 0.366241,0.477288 0.108167,0.04254 0.123332,0.04436 0.309723,0.03732 0.137364,-0.005 0.237416,-0.01866 0.334497,-0.04508 0.09402,-0.02557 0.143706,-0.03248 0.154679,-0.02149 0.0089,0.0089 0.03039,0.07204 0.04779,0.140281 0.03663,0.143741 0.02825,0.174524 -0.05723,0.210152 -0.149916,0.06249 -0.713617,0.09126 -0.911487,0.04653 z m 0.652373,-1.26089 c 1.05e-4,-0.120705 -0.110686,-0.316467 -0.213154,-0.376638 -0.209231,-0.12286 -0.459458,-0.02376 -0.58815,0.232914 -0.0933,0.18607 -0.124128,0.171808 0.372388,0.172238 0.404032,3.57e-4 0.428892,-0.0013 0.428916,-0.02851 z"
       id="path903" />
    <path
       style="fill:#999999;fill-opacity:1;stroke-width:0.0158848"
       d="m 22.966195,29.62364 c -0.06113,-0.0096 -0.191776,-0.05078 -0.258057,-0.08132 -0.04274,-0.01969 -0.0514,-0.03234 -0.05041,-0.07359 0.0018,-0.07236 0.06606,-0.251005 0.09724,-0.270074 0.02003,-0.01227 0.07137,-0.0012 0.205998,0.04447 0.158147,0.05362 0.192485,0.05996 0.290973,0.0536 0.189023,-0.01218 0.291587,-0.08785 0.305626,-0.225449 0.01312,-0.128676 -0.06573,-0.201915 -0.35842,-0.332916 -0.108148,-0.04841 -0.211752,-0.101346 -0.230229,-0.117653 -0.01848,-0.01629 -0.05277,-0.04156 -0.07618,-0.05611 -0.076,-0.04722 -0.152106,-0.182707 -0.171621,-0.305533 -0.02282,-0.143605 -0.0089,-0.246277 0.04971,-0.36831 0.05391,-0.11215 0.136751,-0.191296 0.272102,-0.259989 0.09072,-0.04604 0.09161,-0.04615 0.385776,-0.04589 0.280486,2.43e-4 0.298548,0.0022 0.37074,0.0388 0.04174,0.0212 0.08527,0.04987 0.09673,0.06371 0.02607,0.03147 0.01383,0.116623 -0.03288,0.228746 -0.04048,0.09718 -0.04836,0.09864 -0.225129,0.04203 -0.287771,-0.09218 -0.503719,-0.0238 -0.503878,0.159538 -9.6e-5,0.109833 0.04614,0.148838 0.356397,0.300608 0.24102,0.117905 0.283305,0.14448 0.355108,0.223182 0.09988,0.109478 0.129766,0.199262 0.129601,0.389395 -1.83e-4,0.210073 -0.02988,0.288625 -0.156833,0.414722 -0.152599,0.151577 -0.22168,0.17424 -0.55056,0.180612 -0.139788,0.0028 -0.275604,0.0016 -0.301809,-0.0027 z"
       id="path905" />
    <path
       style="fill:#999999;fill-opacity:1;stroke-width:0.0158848"
       d="m 24.420393,28.777101 7.12e-4,-0.826013 -0.142964,-1.22e-4 -0.142963,-1.24e-4 1.58e-4,-0.182676 1.58e-4,-0.182677 0.142964,1.24e-4 0.142965,1.25e-4 3.54e-4,-0.146936 c 4.07e-4,-0.162587 0.02985,-0.31175 0.08146,-0.412716 0.04684,-0.09164 0.197186,-0.237458 0.301003,-0.29198 0.08482,-0.04455 0.09166,-0.04546 0.340713,-0.04523 0.287706,2.48e-4 0.33326,0.01233 0.319631,0.08478 -0.0046,0.02342 -0.01235,0.08195 -0.01769,0.130068 -0.01493,0.135055 -0.01289,0.133785 -0.229017,0.142627 -0.212422,0.0086 -0.253077,0.02565 -0.305962,0.127714 -0.03512,0.06776 -0.07253,0.218166 -0.08175,0.328639 l -0.0068,0.08339 0.227997,1.98e-4 0.228,1.98e-4 -1.59e-4,0.182676 -1.58e-4,0.182676 -0.23033,-2e-4 -0.23033,-1.99e-4 -7.12e-4,0.826012 -7.12e-4,0.826012 -0.198559,-1.73e-4 -0.198562,-1.72e-4 z"
       id="path907" />
    <path
       style="fill:#999999;fill-opacity:1;stroke-width:0.0158848"
       d="m 26.065519,29.619943 c -0.141282,-0.0225 -0.334375,-0.123396 -0.442872,-0.231425 -0.10942,-0.108947 -0.207017,-0.294825 -0.241361,-0.459677 -0.03141,-0.150755 -0.03078,-0.497121 0.0012,-0.619166 0.06287,-0.240548 0.162703,-0.407173 0.325533,-0.543365 0.169298,-0.141606 0.231932,-0.166593 0.44493,-0.177499 0.406875,-0.02084 0.538959,0.01558 0.712272,0.196379 0.173517,0.181015 0.228559,0.341267 0.250111,0.728176 l 0.01039,0.186656 -0.498784,-3.56e-4 c -0.274333,-1.98e-4 -0.579957,0.0044 -0.679166,0.0099 l -0.180383,0.01024 0.008,0.0491 c 0.01356,0.08218 0.0737,0.227226 0.127041,0.306403 0.03838,0.05696 0.07906,0.09029 0.169574,0.138881 l 0.119081,0.06392 0.214446,6.36e-4 c 0.176728,5.33e-4 0.239942,-0.0059 0.359419,-0.03743 0.07974,-0.02094 0.155253,-0.03412 0.167814,-0.02929 0.02693,0.01036 0.08563,0.250653 0.07071,0.289435 -0.01393,0.03621 -0.12603,0.08269 -0.248854,0.103155 -0.142554,0.02376 -0.575696,0.03341 -0.689135,0.01534 z m 0.610887,-1.260162 c 4.7e-5,-0.05448 -0.06734,-0.232811 -0.110558,-0.292589 -0.08434,-0.116643 -0.258872,-0.172135 -0.411843,-0.130939 -0.130109,0.03505 -0.302411,0.237504 -0.341473,0.401251 l -0.0104,0.04367 0.437134,3.81e-4 c 0.363304,3.05e-4 0.437139,-0.0035 0.437156,-0.02178 z"
       id="path909" />
    <path
       style="fill:#999999;fill-opacity:1;stroke-width:0.0158848"
       d="m 27.486716,28.152307 0.0013,-1.437579 0.206503,1.8e-4 0.206502,1.78e-4 -0.0013,1.43758 -0.0013,1.437578 -0.206503,-1.78e-4 -0.206503,-1.79e-4 z"
       id="path911" />
    <path
       style="fill:#999999;fill-opacity:1;stroke-width:0.00794242"
       d="m 28.897175,29.620458 c -0.123442,-0.03331 -0.240928,-0.101095 -0.332292,-0.191702 -0.03606,-0.03577 -0.06556,-0.0693 -0.06556,-0.07455 5e-6,-0.0051 -0.01295,-0.02388 -0.02876,-0.04143 -0.03378,-0.03746 -0.111986,-0.197134 -0.140988,-0.287875 -0.03189,-0.09973 -0.04525,-0.1947 -0.0498,-0.353482 -0.0075,-0.267 0.02863,-0.449032 0.129704,-0.651166 0.01855,-0.03712 0.05112,-0.0897 0.07237,-0.116834 0.02125,-0.02715 0.04578,-0.06091 0.05453,-0.07505 0.0087,-0.01413 0.032,-0.03731 0.05167,-0.05152 0.01968,-0.01419 0.05817,-0.04292 0.08556,-0.06382 0.131417,-0.100304 0.290159,-0.145564 0.51031,-0.145495 0.209232,6.5e-5 0.342564,0.03404 0.455471,0.116046 0.02122,0.01541 0.04489,0.02802 0.05261,0.02803 0.03582,3.1e-5 0.03572,0.0015 0.03867,-0.513466 l 0.0029,-0.487244 0.212764,1.85e-4 0.212763,1.84e-4 0.005,0.279976 c 0.0029,0.153986 0.005,0.607003 0.005,1.006706 1.32e-4,0.399704 0.0026,0.912588 0.0051,1.139743 0.0029,0.227158 0.0021,0.419435 -0.0019,0.427285 -0.01136,0.02387 -0.0357,0.0276 -0.218766,0.03349 l -0.176264,0.0055 7.4e-5,-0.08384 c 4e-5,-0.04611 -0.0021,-0.08949 -0.0049,-0.09641 -0.0086,-0.02273 -0.03263,-0.01327 -0.09177,0.03628 -0.121315,0.101634 -0.220625,0.150834 -0.332596,0.164776 -0.101197,0.0126 -0.399224,0.0096 -0.451627,-0.0047 z m 0.510604,-0.406252 c 0.09345,-0.04369 0.214328,-0.18113 0.259185,-0.294641 0.02678,-0.06778 0.04014,-0.167504 0.04025,-0.300536 1.91e-4,-0.219972 -0.0341,-0.372955 -0.106306,-0.474334 -0.04343,-0.06097 -0.11945,-0.126718 -0.184986,-0.159981 -0.04341,-0.02203 -0.05159,-0.02332 -0.164088,-0.02587 l -0.118394,-0.0028 -0.05688,0.02805 c -0.0646,0.03187 -0.145235,0.101856 -0.197916,0.171813 -0.09326,0.123832 -0.139213,0.300228 -0.130117,0.499432 0.0088,0.193212 0.06575,0.345868 0.167432,0.449063 0.06272,0.06365 0.1109,0.09503 0.187106,0.121858 0.04522,0.01593 0.06389,0.01788 0.150893,0.01576 0.09256,-0.0024 0.102983,-0.0043 0.153817,-0.02792 z"
       id="path913" />
    <rect
       style="fill:#ffffff;stroke-width:0.316069"
       id="rect879"
       width="102.86404"
       height="13.663542"
       x="407.82458"
       y="2.3174632" />
    <text
       xml:space="preserve"
       style="font-style:normal;font-weight:normal;font-size:5.64444px;line-height:1.25;font-family:sans-serif;fill:#191f51;fill-opacity:1;stroke:none;stroke-width:0.264583"
       x="422.91257"
       y="10.481272"
       id="text866"><tspan
         sodipodi:role="line"
         id="tspan864"
         x="422.91257"
         y="10.481272"
         style="font-style:normal;font-variant:normal;font-weight:bold;font-stretch:normal;font-size:5.64444px;font-family:sans-serif;-inkscape-font-specification:'sans-serif Bold';fill:#191f51;fill-opacity:1;stroke-width:0.264583">Lehrerbeurteilung</tspan></text>
    <g
       id="g884"
       transform="matrix(-0.08472886,0,0,0.08472886,514.53503,-2.342609)"
       style="fill:#191f51;fill-opacity:1">
      <path
         style="fill:#191f51;fill-opacity:1;stroke-width:0.264583"
         d="m 243.33571,196.45354 -1.57326,-0.59337 -0.44566,-2.51354 c -0.90228,-5.08879 -1.65865,-6.83566 -3.8959,-8.99773 -1.03505,-1.00027 -1.92251,-2.24321 -2.83068,-3.96452 -0.7276,-1.37908 -2.03729,-3.38414 -2.91041,-4.45568 -3.1712,-3.89184 -3.56188,-4.47554 -5.63683,-8.4219 -1.16011,-2.20643 -2.55884,-4.70675 -3.10827,-5.55625 -1.24276,-1.92148 -10.28382,-10.96452 -11.44157,-11.44407 l -0.85131,-0.35263 0.0679,-18.28708 0.0679,-18.28708 1.45521,-0.22452 c 0.80037,-0.12349 4.61037,-0.93761 8.46667,-1.80916 12.28879,-2.77735 13.48507,-2.94841 20.76979,-2.97001 5.52772,-0.0164 6.79134,0.0603 9.75817,0.59227 10.15212,1.82033 17.56887,5.6518 19.6867,10.17007 0.28759,0.61357 0.67002,1.82996 0.84984,2.70308 0.17981,0.87313 0.80406,2.56993 1.38721,3.77067 0.89477,1.84241 1.06027,2.44388 1.06027,3.85342 0,0.91864 -0.19834,2.35251 -0.44075,3.18638 l -0.44075,1.51612 0.80946,1.64425 c 1.50423,3.05553 1.30589,5.54624 -0.6799,8.53795 -1.11155,1.67462 -1.13366,2.48552 -0.12589,4.61646 2.39825,5.0711 0.33844,10.15784 -4.6208,11.41115 -0.9269,0.23425 -4.0834,0.33589 -10.7071,0.34476 l -9.39271,0.0126 -1.47397,0.69127 c -1.98751,0.93211 -2.36249,1.74056 -2.36249,5.09347 0,3.08069 0.31483,4.02239 3.19645,9.56108 2.47911,4.76506 3.38829,7.64469 3.59207,11.37709 0.2307,4.22536 -0.63423,7.40517 -2.3652,8.69542 -1.10579,0.82424 -3.8213,0.87056 -5.86428,0.10003 z m 66.47885,-33.97932 c 0.191,-0.0764 0.4192,-0.067 0.50712,0.0209 0.0879,0.0879 -0.0684,0.15045 -0.34726,0.13896 -0.30823,-0.0127 -0.37092,-0.0754 -0.15986,-0.15985 z m 8.45013,0.006 c 0.18191,-0.0734 0.47956,-0.0734 0.66146,0 0.1819,0.0734 0.0331,0.13345 -0.33073,0.13345 -0.3638,0 -0.51263,-0.0601 -0.33073,-0.13345 z m 2.92696,-0.2701 c 0.19099,-0.0764 0.4192,-0.067 0.50712,0.0209 0.0879,0.0879 -0.0684,0.15045 -0.34727,0.13896 -0.30823,-0.0127 -0.37092,-0.0754 -0.15985,-0.15985 z m 32.13034,-1.86084 c 0.40018,-0.0606 1.05502,-0.0606 1.4552,0 0.40019,0.0606 0.0728,0.11022 -0.7276,0.11022 -0.80036,0 -1.12779,-0.0496 -0.7276,-0.11022 z m -164.63698,-7.74326 -1.19063,-0.13703 -0.36947,-1.5875 c -0.25106,-1.07871 -0.37623,-3.41066 -0.39057,-7.27604 -0.0234,-6.32466 0.36013,-9.26883 2.08993,-16.04117 1.57733,-6.17538 5.92035,-17.97147 6.60848,-17.94928 0.14504,0.005 2.91286,0.10646 6.15069,0.22617 l 5.88698,0.21768 v 19.51261 c 0,10.73194 0.0751,20.23075 0.1668,21.10847 l 0.1668,1.59584 -5.78919,0.16347 c -9.95385,0.28106 -12.10315,0.30795 -13.32982,0.16678 z m 93.68339,-9.94866 c 0.0127,-0.30822 0.0754,-0.37092 0.15985,-0.15985 0.0764,0.19099 0.067,0.4192 -0.0209,0.50712 -0.0879,0.0879 -0.15045,-0.0684 -0.13896,-0.34727 z m 0,-1.85208 c 0.0127,-0.30823 0.0754,-0.37092 0.15985,-0.15985 0.0764,0.19099 0.067,0.41919 -0.0209,0.50711 -0.0879,0.0879 -0.15045,-0.0684 -0.13896,-0.34726 z m 87.34319,-10.56129 c 0.005,-0.43656 0.0647,-0.58312 0.13177,-0.32569 0.0671,0.25743 0.0627,0.61462 -0.01,0.79375 -0.0725,0.17913 -0.12736,-0.0315 -0.12197,-0.46806 z m -0.01,-5.95312 c 0,-0.3638 0.0601,-0.51263 0.13345,-0.33073 0.0734,0.1819 0.0734,0.47956 0,0.66146 -0.0734,0.1819 -0.13345,0.0331 -0.13345,-0.33073 z m -87.81671,-6.21771 c 0.003,-0.58208 0.0571,-0.78905 0.12041,-0.45993 0.0633,0.32911 0.0609,0.80536 -0.005,1.05833 -0.0662,0.25296 -0.118,-0.0163 -0.11506,-0.5984 z m 67.99734,-0.0501 c 0.25466,-0.0666 0.67138,-0.0666 0.92604,0 0.25467,0.0665 0.0463,0.121 -0.46302,0.121 -0.50932,0 -0.71768,-0.0545 -0.46302,-0.121 z m 6.2208,-0.26933 c 0.32911,-0.0633 0.80536,-0.0609 1.05833,0.005 0.25296,0.0662 -0.0163,0.11801 -0.5984,0.11507 -0.58208,-0.003 -0.78905,-0.0571 -0.45993,-0.1204 z m 6.21462,-0.25984 c 0.25466,-0.0665 0.67138,-0.0665 0.92604,0 0.25466,0.0666 0.0463,0.121 -0.46302,0.121 -0.50932,0 -0.71768,-0.0545 -0.46302,-0.121 z m -24.44156,-3.72022 c -0.32911,-0.41964 -0.31975,-0.429 0.0999,-0.0999 0.25466,0.19972 0.46302,0.40808 0.46302,0.46302 0,0.21776 -0.21727,0.0776 -0.56291,-0.36313 z M 283.93501,112.781 c 0.34177,-0.3638 0.68094,-0.66145 0.7537,-0.66145 0.0728,0 -0.14734,0.29765 -0.48912,0.66145 -0.34178,0.36381 -0.68094,0.66146 -0.7537,0.66146 -0.0728,0 0.14734,-0.29765 0.48912,-0.66146 z m 9.7323,-2.44432 c 0.76887,-0.0536 1.95949,-0.0531 2.64584,0.001 0.68634,0.0543 0.0573,0.0982 -1.39794,0.0975 -1.4552,-7.9e-4 -2.01676,-0.0451 -1.2479,-0.0987 z m 11.38475,0.0146 c 0.191,-0.0764 0.4192,-0.067 0.50712,0.0209 0.0879,0.0879 -0.0684,0.15046 -0.34726,0.13897 -0.30823,-0.0127 -0.37092,-0.0754 -0.15986,-0.15985 z"
         id="path888" />
      <path
         style="fill:#191f51;fill-opacity:1;stroke-width:0.264583"
         d="m 308.30502,162.35253 c -7.25186,-0.75804 -14.89084,-3.33877 -18.97882,-6.41176 -2.50467,-1.8828 -3.47255,-3.34983 -4.23042,-6.41216 -0.24809,-1.00244 -0.92783,-2.74026 -1.51054,-3.86182 -0.9657,-1.85872 -1.05739,-2.21002 -1.03582,-3.96875 0.013,-1.06125 0.19965,-2.49597 0.41474,-3.18827 0.38961,-1.25402 0.38751,-1.26568 -0.55927,-3.11103 -0.79143,-1.54255 -0.95035,-2.12848 -0.95035,-3.50392 0,-1.70138 0.73968,-3.7862 1.94275,-5.47576 0.74376,-1.04452 0.67528,-1.93678 -0.30272,-3.9443 -0.65625,-1.34708 -0.86623,-2.17077 -0.95814,-3.75858 -0.16182,-2.79523 0.36878,-4.32468 2.0439,-5.89156 2.1263,-1.9889 2.68221,-2.08325 13.51301,-2.2935 10.47517,-0.20335 11.20225,-0.31803 12.679,-1.99995 0.96179,-1.09543 1.19382,-2.20978 1.00875,-4.84479 -0.17276,-2.45972 -0.70031,-3.833236 -3.28725,-8.558486 -3.14005,-5.735564 -4.26716,-9.737693 -3.97009,-14.096889 0.29411,-4.315497 1.56119,-6.52418 3.94816,-6.882128 2.08182,-0.312188 5.75885,0.736107 5.76341,1.643107 10e-4,0.262087 0.29847,1.786209 0.66033,3.386938 0.86323,3.818611 1.87741,5.860449 3.67266,7.394178 0.95983,0.820011 1.81216,1.928109 2.70042,3.510758 1.38577,2.469068 2.62578,4.176913 5.07835,6.994286 0.84249,0.967801 2.17234,2.932336 2.95523,4.365626 3.72821,6.82547 4.20538,7.51444 7.39396,10.67592 1.68792,1.67357 4.52746,4.21056 6.31009,5.63776 l 3.24115,2.59491 v 17.8194 17.81939 l -3.37344,1.07896 c -5.12419,1.63893 -13.87109,3.94978 -17.13177,4.52605 -5.86585,1.0367 -11.8247,1.30124 -17.03728,0.75637 z m 44.09092,-2.00801 -3.10885,-0.0876 v -21.00341 -21.0034 l 1.91823,-0.15215 c 4.59159,-0.36419 17.18028,-0.74407 17.39931,-0.52504 0.1298,0.12979 0.41055,1.24784 0.6239,2.48454 1.20192,6.96712 0.62205,14.50446 -1.86246,24.20896 -1.03657,4.04882 -3.26729,10.75843 -4.67108,14.04977 l -0.89133,2.08981 -3.14943,0.0131 c -1.73219,0.007 -4.54842,-0.0264 -6.25829,-0.0745 z"
         id="path886" />
    </g>
  </g>
</svg>
